<svg xmlns="http://www.w3.org/2000/svg" viewBox="0 0 700 550" width="700" height="550" preserveAspectRatio="xMidYMid meet" style="width: 100%; height: 100%; transform: translate3d(0px, 0px, 0px); content-visibility: visible;"><defs><clipPath id="__lottie_element_2"><rect width="700" height="550" x="0" y="0"></rect></clipPath></defs><g clip-path="url(#__lottie_element_2)"><g transform="matrix(0.7875000238418579,0,0,0.824999988079071,353.9006652832031,305.38861083984375)" opacity="1" style="display: block;"><g opacity="1" transform="matrix(1,0,0,1,0,0)"><g opacity="1" transform="matrix(1,0,0,1,0,0)"><g opacity="1" transform="matrix(1,0,0,1,0,0)"><g opacity="1" transform="matrix(1,0,0,1,0,0)"><g opacity="1" transform="matrix(1,0,0,1,0,0)"><path fill="rgb(108,71,212)" fill-opacity="1" d=" M-101.4489974975586,-198.88999938964844 C-101.4489974975586,-198.88999938964844 -200.03900146484375,-198.88999938964844 -200.03900146484375,-198.88999938964844 C-204.29299926757812,-198.88999938964844 -207.74200439453125,-202.33799743652344 -207.74200439453125,-206.5919952392578 C-207.74200439453125,-206.5919952392578 -207.74200439453125,-299.1610107421875 -207.74200439453125,-299.1610107421875 C-207.74200439453125,-302.385986328125 -205.1269989013672,-305 -201.90199279785156,-305 C-201.90199279785156,-305 -101.4489974975586,-305 -101.4489974975586,-305 C-98.2239990234375,-305 -95.61000061035156,-302.385986328125 -95.61000061035156,-299.1610107421875 C-95.61000061035156,-299.1610107421875 -95.61000061035156,-204.72900390625 -95.61000061035156,-204.72900390625 C-95.61000061035156,-201.50399780273438 -98.2239990234375,-198.88999938964844 -101.4489974975586,-198.88999938964844z"></path></g></g></g></g></g></g><g transform="matrix(0,0,0,0,234.5518798828125,94.7421875)" opacity="1" style="display: block;"><g opacity="1" transform="matrix(1,0,0,1,0,0)"><path fill="rgb(255,255,255)" fill-opacity="1" d=" M-127.3499984741211,-244.09800720214844 C-127.3499984741211,-244.09800720214844 -133.73500061035156,-250.48300170898438 -133.73500061035156,-250.48300170898438 C-134.875,-251.73699951171875 -136.35699462890625,-252.42100524902344 -137.83900451660156,-252.42100524902344 C-139.3209991455078,-252.42100524902344 -140.8040008544922,-251.73699951171875 -141.94400024414062,-250.5970001220703 C-141.94400024414062,-250.5970001220703 -145.5919952392578,-246.94900512695312 -145.5919952392578,-246.94900512695312 C-145.82000732421875,-247.06300354003906 -146.0489959716797,-247.177001953125 -146.27699279785156,-247.29100036621094 C-146.73300170898438,-247.5189971923828 -147.0749969482422,-247.63299560546875 -147.41700744628906,-247.86099243164062 C-150.83700561523438,-250.02699279785156 -153.9149932861328,-252.8769989013672 -156.8800048828125,-256.5260009765625 C-158.2480010986328,-258.2359924316406 -159.2740020751953,-259.8330078125 -159.843994140625,-261.20098876953125 C-158.9320068359375,-261.9989929199219 -158.13400268554688,-262.9110107421875 -157.33599853515625,-263.7090148925781 C-156.99400329589844,-264.0509948730469 -156.65199279785156,-264.39300537109375 -156.30999755859375,-264.7349853515625 C-155.05599975585938,-265.989013671875 -154.3719940185547,-267.47198486328125 -154.3719940185547,-268.9540100097656 C-154.3719940185547,-270.4360046386719 -155.05599975585938,-271.9179992675781 -156.30999755859375,-273.1719970703125 C-156.30999755859375,-273.1719970703125 -159.5019989013672,-276.364990234375 -159.5019989013672,-276.364990234375 C-159.843994140625,-276.7070007324219 -160.18600463867188,-277.04901123046875 -160.5279998779297,-277.5050048828125 C-161.21200561523438,-278.1889953613281 -162.01100158691406,-278.98699951171875 -162.69500732421875,-279.6709899902344 C-163.8350067138672,-280.8110046386719 -165.31700134277344,-281.4960021972656 -166.7989959716797,-281.4960021972656 C-168.281005859375,-281.4960021972656 -169.64999389648438,-280.92498779296875 -170.9040069580078,-279.6709899902344 C-170.9040069580078,-279.6709899902344 -174.89500427246094,-275.6809997558594 -174.89500427246094,-275.6809997558594 C-176.3769989013672,-274.1990051269531 -177.28900146484375,-272.260009765625 -177.51699829101562,-270.093994140625 C-177.7449951171875,-266.67401123046875 -176.83299255371094,-263.4809875488281 -176.03500366210938,-261.4289855957031 C-174.21099853515625,-256.1839904785156 -171.36000061035156,-251.50900268554688 -167.14100646972656,-246.49200439453125 C-162.00999450683594,-240.44900512695312 -155.96800231933594,-235.66000366210938 -148.8990020751953,-232.24000549316406 C-146.27699279785156,-230.98599243164062 -142.6269989013672,-229.50399780273438 -138.63699340820312,-229.16200256347656 C-138.40899658203125,-229.16200256347656 -138.18099975585938,-229.16200256347656 -137.83900451660156,-229.16200256347656 C-135.10299682617188,-229.16200256347656 -132.82200622558594,-230.18800354003906 -130.9980010986328,-232.12600708007812 C-130.9980010986328,-232.12600708007812 -130.9980010986328,-232.12600708007812 -130.88400268554688,-232.24000549316406 C-130.31399536132812,-232.9239959716797 -129.6300048828125,-233.60899353027344 -128.83200073242188,-234.29299926757812 C-128.37600708007812,-234.74899291992188 -127.80599975585938,-235.31900024414062 -127.3499984741211,-235.77499389648438 C-124.95600128173828,-238.2830047607422 -124.95600128173828,-241.70399475097656 -127.3499984741211,-244.09800720214844z M-129.9720001220703,-238.16900634765625 C-130.42799377441406,-237.71299743652344 -130.88400268554688,-237.2570037841797 -131.33999633789062,-236.80099487304688 C-132.13800048828125,-236.11700439453125 -132.822998046875,-235.31900024414062 -133.62100219726562,-234.52099609375 C-134.76100158691406,-233.38099670410156 -136.01499938964844,-232.80999755859375 -137.72500610351562,-232.80999755859375 C-137.9530029296875,-232.80999755859375 -138.06700134277344,-232.80999755859375 -138.2949981689453,-232.80999755859375 C-141.71499633789062,-233.03799438476562 -144.90899658203125,-234.40699768066406 -147.18899536132812,-235.5469970703125 C-153.68800354003906,-238.74000549316406 -159.38800048828125,-243.18600463867188 -164.177001953125,-248.88699340820312 C-168.0540008544922,-253.56199645996094 -170.67599487304688,-258.00799560546875 -172.5,-262.6830139160156 C-173.63999938964844,-265.41900634765625 -174.0959930419922,-267.58599853515625 -173.8679962158203,-269.75201416015625 C-173.75399780273438,-271.0060119628906 -173.29800415039062,-272.14599609375 -172.27200317382812,-273.0580139160156 C-172.27200317382812,-273.0580139160156 -168.39599609375,-276.93499755859375 -168.39599609375,-276.93499755859375 C-168.0540008544922,-277.2770080566406 -167.48300170898438,-277.7330017089844 -166.7989959716797,-277.7330017089844 C-166.11500549316406,-277.7330017089844 -165.65899658203125,-277.3909912109375 -165.2030029296875,-276.93499755859375 C-164.5189971923828,-276.2510070800781 -163.8350067138672,-275.5669860839844 -163.1510009765625,-274.88299560546875 C-162.8090057373047,-274.5409851074219 -162.4669952392578,-274.0840148925781 -162.01100158691406,-273.74200439453125 C-162.01100158691406,-273.74200439453125 -158.8179931640625,-270.54998779296875 -158.8179931640625,-270.54998779296875 C-158.4759979248047,-270.2080078125 -158.02000427246094,-269.52398681640625 -158.02000427246094,-268.9540100097656 C-158.02000427246094,-268.2699890136719 -158.4759979248047,-267.6990051269531 -158.8179931640625,-267.35699462890625 C-159.16000366210938,-267.0150146484375 -159.5019989013672,-266.6730041503906 -159.843994140625,-266.33099365234375 C-160.8699951171875,-265.30499267578125 -161.7830047607422,-264.39300537109375 -162.69500732421875,-263.4809875488281 C-162.69500732421875,-263.4809875488281 -162.69500732421875,-263.4809875488281 -162.8090057373047,-263.36700439453125 C-163.94900512695312,-262.22698974609375 -163.7209930419922,-261.20001220703125 -163.4929962158203,-260.5159912109375 C-163.4929962158203,-260.5159912109375 -163.4929962158203,-260.4020080566406 -163.4929962158203,-260.4020080566406 C-162.69500732421875,-258.3500061035156 -161.44000244140625,-256.5249938964844 -159.72999572753906,-254.2449951171875 C-156.53799438476562,-250.2550048828125 -153.11700439453125,-247.17599487304688 -149.35499572753906,-244.78199768066406 C-148.8990020751953,-244.44000244140625 -148.32899475097656,-244.21200561523438 -147.8730010986328,-243.98399353027344 C-147.41700744628906,-243.75599670410156 -147.07400512695312,-243.64199829101562 -146.73199462890625,-243.41400146484375 C-146.73199462890625,-243.41400146484375 -146.61900329589844,-243.3000030517578 -146.61900329589844,-243.3000030517578 C-145.47900390625,-242.72999572753906 -144.33799743652344,-242.95799255371094 -143.42599487304688,-243.8699951171875 C-143.42599487304688,-243.8699951171875 -139.43600463867188,-247.86099243164062 -139.43600463867188,-247.86099243164062 C-139.093994140625,-248.2030029296875 -138.5229949951172,-248.65899658203125 -137.83900451660156,-248.65899658203125 C-137.2689971923828,-248.65899658203125 -136.69900512695312,-248.2030029296875 -136.35699462890625,-247.86099243164062 C-136.35699462890625,-247.86099243164062 -129.9720001220703,-241.4759979248047 -129.9720001220703,-241.4759979248047 C-128.9459991455078,-240.4499969482422 -128.9459991455078,-239.3090057373047 -129.9720001220703,-238.16900634765625z"></path></g></g><g transform="matrix(0.7875000238418579,0,0,0.824999988079071,353.9006652832031,305.38861083984375)" opacity="1" style="display: block;"><g opacity="1" transform="matrix(1,0,0,1,0,0)"><path fill="rgb(255,177,165)" fill-opacity="1" d=" M-265.239013671875,-103.9280014038086 C-265.239013671875,-79.33200073242188 -285.1780090332031,-59.391998291015625 -309.7749938964844,-59.391998291015625 C-334.3710021972656,-59.391998291015625 -354.3110046386719,-79.33200073242188 -354.3110046386719,-103.9280014038086 C-354.3110046386719,-128.52499389648438 -334.3710021972656,-148.46400451660156 -309.7749938964844,-148.46400451660156 C-285.1780090332031,-148.46400451660156 -265.239013671875,-128.52499389648438 -265.239013671875,-103.9280014038086z"></path></g></g><g transform="matrix(0.02422628179192543,0,0,0.025379912927746773,117.4575424194336,222.2856903076172)" opacity="1" style="display: block;"><g opacity="1" transform="matrix(1,0,0,1,0,0)"><path stroke-linecap="round" stroke-linejoin="round" fill-opacity="0" stroke="rgb(255,255,255)" stroke-opacity="1" stroke-width="0.996" d=" M-289.8380126953125,-90.55699920654297 C-289.8380126953125,-90.55699920654297 -323.61199951171875,-90.55699920654297 -323.61199951171875,-90.55699920654297 C-323.61199951171875,-90.55699920654297 -329.71099853515625,-90.55699920654297 -329.71099853515625,-90.55699920654297 C-329.71099853515625,-90.55699920654297 -329.71099853515625,-117.2979965209961 -329.71099853515625,-117.2979965209961 C-329.71099853515625,-117.2979965209961 -289.8380126953125,-117.2979965209961 -289.8380126953125,-117.2979965209961 C-289.8380126953125,-117.2979965209961 -289.8380126953125,-110.61299896240234 -289.8380126953125,-110.61299896240234 C-289.8380126953125,-110.61299896240234 -289.8380126953125,-90.55699920654297 -289.8380126953125,-90.55699920654297z"></path></g><g opacity="1" transform="matrix(1,0,0,1,0,0)"><path stroke-linecap="round" stroke-linejoin="round" fill-opacity="0" stroke="rgb(255,255,255)" stroke-opacity="1" stroke-width="0.996" d=" M-329.71099853515625,-117.2979965209961 C-329.71099853515625,-117.2979965209961 -309.7749938964844,-101.58699798583984 -309.7749938964844,-101.58699798583984 C-309.7749938964844,-101.58699798583984 -289.8380126953125,-117.2979965209961 -289.8380126953125,-117.2979965209961"></path></g></g><g transform="matrix(0,0,0,0,618.5739135742188,152.9063262939453)" opacity="1" style="display: block;"><g opacity="1" transform="matrix(1,0,0,1,0,0)"><path fill="rgb(255,177,165)" fill-opacity="1" d=" M340.7359924316406,-178.83799743652344 C340.7359924316406,-178.83799743652344 331.45098876953125,-178.83799743652344 331.45098876953125,-178.83799743652344 C330.5989990234375,-178.83799743652344 329.90899658203125,-179.52699279785156 329.90899658203125,-180.37899780273438 C329.90899658203125,-180.37899780273438 329.90899658203125,-189.2760009765625 329.90899658203125,-189.2760009765625 C329.90899658203125,-190.1280059814453 330.5989990234375,-190.81700134277344 331.45098876953125,-190.81700134277344 C331.45098876953125,-190.81700134277344 340.7359924316406,-190.81700134277344 340.7359924316406,-190.81700134277344 C341.5880126953125,-190.81700134277344 342.2770080566406,-190.1280059814453 342.2770080566406,-189.2760009765625 C342.2770080566406,-189.2760009765625 342.2770080566406,-180.37899780273438 342.2770080566406,-180.37899780273438 C342.2770080566406,-179.52699279785156 341.5880126953125,-178.83799743652344 340.7359924316406,-178.83799743652344z"></path></g></g><g transform="matrix(0.19547930359840393,0,0,0.20478782057762146,185.783935546875,355.5470275878906)" opacity="1" style="display: block;"><g opacity="1" transform="matrix(1,0,0,1,0,0)"><path fill="rgb(255,177,165)" fill-opacity="1" d=" M-277.8219909667969,88.80699920654297 C-277.8219909667969,88.80699920654297 -290.1199951171875,88.80699920654297 -290.1199951171875,88.80699920654297 C-291.24798583984375,88.80699920654297 -292.1619873046875,87.89199829101562 -292.1619873046875,86.76399993896484 C-292.1619873046875,86.76399993896484 -292.1619873046875,74.98100280761719 -292.1619873046875,74.98100280761719 C-292.1619873046875,73.85299682617188 -291.24798583984375,72.93800354003906 -290.1199951171875,72.93800354003906 C-290.1199951171875,72.93800354003906 -277.8219909667969,72.93800354003906 -277.8219909667969,72.93800354003906 C-276.6940002441406,72.93800354003906 -275.77899169921875,73.85299682617188 -275.77899169921875,74.98100280761719 C-275.77899169921875,74.98100280761719 -275.77899169921875,86.76399993896484 -275.77899169921875,86.76399993896484 C-275.77899169921875,87.89199829101562 -276.6940002441406,88.80699920654297 -277.8219909667969,88.80699920654297z"></path></g></g><g transform="matrix(0.7875000238418579,0,0,0.824999988079071,353.9006652832031,305.3894348144531)" opacity="1" style="display: block;"><g opacity="1" transform="matrix(1,0,0,1,0,0)"><path fill="rgb(255,177,165)" fill-opacity="1" d=" M272.6109924316406,-118.04900360107422 C272.6109924316406,-118.04900360107422 153.14599609375,-118.04900360107422 153.14599609375,-118.04900360107422 C151.94000244140625,-118.04900360107422 150.96299743652344,-119.0260009765625 150.96299743652344,-120.23200225830078 C150.96299743652344,-120.23200225830078 150.96299743652344,-159.04299926757812 150.96299743652344,-159.04299926757812 C150.96299743652344,-160.24899291992188 151.94000244140625,-161.2259979248047 153.14599609375,-161.2259979248047 C153.14599609375,-161.2259979248047 272.6109924316406,-161.2259979248047 272.6109924316406,-161.2259979248047 C273.8169860839844,-161.2259979248047 274.79400634765625,-160.24899291992188 274.79400634765625,-159.04299926757812 C274.79400634765625,-159.04299926757812 274.79400634765625,-120.23200225830078 274.79400634765625,-120.23200225830078 C274.79400634765625,-119.0260009765625 273.8169860839844,-118.04900360107422 272.6109924316406,-118.04900360107422z"></path></g><g opacity="1" transform="matrix(1,0,0,1,0,0)"><path fill="rgb(255,177,165)" fill-opacity="1" d=" M167.3459930419922,-122.93399810791016 C167.3459930419922,-122.93399810791016 167.3459930419922,-106.10700225830078 167.3459930419922,-106.10700225830078 C167.3459930419922,-106.10700225830078 188.50799560546875,-122.93399810791016 188.50799560546875,-122.93399810791016 C188.50799560546875,-122.93399810791016 167.3459930419922,-122.93399810791016 167.3459930419922,-122.93399810791016z"></path></g></g><g transform="matrix(0.7875000238418579,0,0,0.824999988079071,353.8998718261719,305.38861083984375)" opacity="1" style="display: block;"><g opacity="1" transform="matrix(1,0,0,1,0,0)"><path stroke-linecap="butt" stroke-linejoin="miter" fill-opacity="0" stroke-miterlimit="10" stroke="rgb(255,255,255)" stroke-opacity="1" stroke-width="0.856" d=" M171.4499969482422,-145.84100341796875 C171.4499969482422,-145.84100341796875 171.51699829101562,-145.80799865722656 171.51699829101562,-145.80799865722656"></path></g></g><g transform="matrix(0.7875000238418579,0,0,0.824999988079071,353.8998718261719,305.38861083984375)" opacity="1" style="display: block;"><g opacity="1" transform="matrix(1,0,0,1,0,0)"><path stroke-linecap="butt" stroke-linejoin="miter" fill-opacity="0" stroke-miterlimit="10" stroke="rgb(255,255,255)" stroke-opacity="1" stroke-width="0.856" d=" M171.4499969482422,-135.48599243164062 C171.4499969482422,-135.48599243164062 176.901123046875,-135.4735870361328 176.901123046875,-135.4735870361328"></path></g></g><g transform="matrix(0.7875000238418579,0,0,0.824999988079071,353.9006652832031,305.38861083984375)" opacity="1" style="display: block;"><g opacity="1" transform="matrix(1,0,0,1,0,0)"><path fill="rgb(252,191,134)" fill-opacity="1" d=" M-353.6433410644531,14.708600044250488 C-353.6433410644531,14.708600044250488 -355.875,14.642999649047852 -355.875,14.642999649047852 C-356.9410095214844,14.642999649047852 -357.8059997558594,15.508000373840332 -357.8059997558594,16.573999404907227 C-357.8059997558594,16.573999404907227 -357.8059997558594,20.707000732421875 -357.8059997558594,20.707000732421875 C-357.8059997558594,21.773000717163086 -356.9410095214844,22.63800048828125 -355.875,22.63800048828125 C-355.875,22.63800048828125 -353.6433410644531,22.70359992980957 -353.6433410644531,22.70359992980957 C-352.57733154296875,22.70359992980957 -351.71234130859375,21.838600158691406 -351.71234130859375,20.772600173950195 C-351.71234130859375,20.772600173950195 -351.71234130859375,16.63960075378418 -351.71234130859375,16.63960075378418 C-351.71234130859375,15.573599815368652 -352.57733154296875,14.708600044250488 -353.6433410644531,14.708600044250488z"></path></g></g><g transform="matrix(0.7875000238418579,0,0,0.824999988079071,353.9006652832031,305.38861083984375)" opacity="1" style="display: block;"><g opacity="1" transform="matrix(1,0,0,1,0,0)"><path fill="rgb(252,191,134)" fill-opacity="1" d=" M205.072998046875,-49.2239990234375 C205.072998046875,-49.2239990234375 211.5709991455078,-49.362998962402344 211.5709991455078,-49.362998962402344 C209.36300659179688,-49.362998962402344 207.572998046875,-51.152000427246094 207.572998046875,-53.36000061035156 C207.572998046875,-53.36000061035156 207.572998046875,-53.36000061035156 207.572998046875,-53.36000061035156 C207.572998046875,-55.56800079345703 209.36300659179688,-57.358001708984375 211.5709991455078,-57.358001708984375 C211.5709991455078,-57.358001708984375 205.072998046875,-57.21799850463867 205.072998046875,-57.21799850463867 C207.281005859375,-57.21799850463867 209.0709991455078,-55.42900085449219 209.0709991455078,-53.22100067138672 C209.0709991455078,-53.22100067138672 209.0709991455078,-53.22100067138672 209.0709991455078,-53.22100067138672 C209.0709991455078,-51.01300048828125 207.281005859375,-49.2239990234375 205.072998046875,-49.2239990234375z"></path></g></g><g transform="matrix(0.7875000238418579,0,0,0.824999988079071,353.9006652832031,305.38861083984375)" opacity="1" style="display: block;"><g opacity="1" transform="matrix(1,0,0,1,0,0)"><path fill="rgb(252,191,134)" fill-opacity="1" d=" M-18.531999588012695,-255.8820037841797 C-18.531999588012695,-255.8820037841797 -11.916999816894531,-255.81700134277344 -11.916999816894531,-255.81700134277344 C-14.125,-255.81700134277344 -15.914999961853027,-257.60699462890625 -15.914999961853027,-259.81500244140625 C-15.914999961853027,-259.81500244140625 -15.914999961853027,-259.81500244140625 -15.914999961853027,-259.81500244140625 C-15.914999961853027,-262.02301025390625 -14.125,-263.81201171875 -11.916999816894531,-263.81201171875 C-11.916999816894531,-263.81201171875 -18.531999588012695,-263.87701416015625 -18.531999588012695,-263.87701416015625 C-16.323999404907227,-263.87701416015625 -14.53499984741211,-262.0880126953125 -14.53499984741211,-259.8800048828125 C-14.53499984741211,-259.8800048828125 -14.53499984741211,-259.8800048828125 -14.53499984741211,-259.8800048828125 C-14.53499984741211,-257.6719970703125 -16.323999404907227,-255.8820037841797 -18.531999588012695,-255.8820037841797z"></path></g></g><g transform="matrix(0,0,0,0,509.8264465332031,20.822179794311523)" opacity="1" style="display: none;"><g opacity="1" transform="matrix(1,0,0,1,0,0)"><path stroke-linecap="butt" stroke-linejoin="miter" fill-opacity="0" stroke-miterlimit="10" stroke="rgb(252,191,134)" stroke-opacity="1" stroke-width="1" d=" M157.51100158691406,-257.5050048828125 C157.51100158691406,-257.5050048828125 188.49200439453125,-257.5050048828125 188.49200439453125,-257.5050048828125 C190.07899475097656,-257.5050048828125 191.36399841308594,-256.20098876953125 191.36399841308594,-254.5919952392578 C191.36399841308594,-254.5919952392578 191.36399841308594,-239.4029998779297 191.36399841308594,-239.4029998779297 C191.36399841308594,-237.79400634765625 190.07899475097656,-236.49000549316406 188.49200439453125,-236.49000549316406 C188.49200439453125,-236.49000549316406 172.51400756835938,-236.49000549316406 172.51400756835938,-236.49000549316406 C172.51400756835938,-236.49000549316406 163.01800537109375,-228.35299682617188 163.01800537109375,-228.35299682617188 C163.01800537109375,-228.35299682617188 163.01800537109375,-236.05999755859375 163.01800537109375,-236.05999755859375 C163.01800537109375,-236.05999755859375 157.45399475097656,-236.21800231933594 157.45399475097656,-236.21800231933594 C155.88999938964844,-236.25 154.63900756835938,-237.54400634765625 154.63900756835938,-239.1300048828125 C154.63900756835938,-239.1300048828125 154.63900756835938,-254.5919952392578 154.63900756835938,-254.5919952392578 C154.63900756835938,-256.20098876953125 155.9239959716797,-257.5050048828125 157.51100158691406,-257.5050048828125z"></path></g></g><g transform="matrix(0,0,0,0,509.8264465332031,20.822179794311523)" opacity="1" style="display: none;"><g opacity="1" transform="matrix(1,0,0,1,0,0)"><path stroke-linecap="butt" stroke-linejoin="miter" fill-opacity="0" stroke-miterlimit="10" stroke="rgb(255,246,238)" stroke-opacity="1" stroke-width="1" d=" M157.51100158691406,-257.5050048828125 C157.51100158691406,-257.5050048828125 188.49200439453125,-257.5050048828125 188.49200439453125,-257.5050048828125 C190.07899475097656,-257.5050048828125 191.36399841308594,-256.20098876953125 191.36399841308594,-254.5919952392578 C191.36399841308594,-254.5919952392578 191.36399841308594,-239.4029998779297 191.36399841308594,-239.4029998779297 C191.36399841308594,-237.79400634765625 190.07899475097656,-236.49000549316406 188.49200439453125,-236.49000549316406 C188.49200439453125,-236.49000549316406 172.51400756835938,-236.49000549316406 172.51400756835938,-236.49000549316406 C172.51400756835938,-236.49000549316406 163.01800537109375,-228.35299682617188 163.01800537109375,-228.35299682617188 C163.01800537109375,-228.35299682617188 163.01800537109375,-236.05999755859375 163.01800537109375,-236.05999755859375 C163.01800537109375,-236.05999755859375 157.45399475097656,-236.21800231933594 157.45399475097656,-236.21800231933594 C155.88999938964844,-236.25 154.63900756835938,-237.54400634765625 154.63900756835938,-239.1300048828125 C154.63900756835938,-239.1300048828125 154.63900756835938,-254.5919952392578 154.63900756835938,-254.5919952392578 C154.63900756835938,-256.20098876953125 155.9239959716797,-257.5050048828125 157.51100158691406,-257.5050048828125z"></path></g></g><g transform="matrix(0.0591488815844059,0,0,0.061965495347976685,615.3298950195312,318.05419921875)" opacity="1" style="display: block;"><g opacity="1" transform="matrix(1,0,0,1,0,0)"><path stroke-linecap="butt" stroke-linejoin="miter" fill-opacity="0" stroke-miterlimit="10" stroke="rgb(255,246,238)" stroke-opacity="1" stroke-width="1" d=" M368.32000732421875,16.599000930786133 C368.32000732421875,21.856000900268555 364.11700439453125,26.117000579833984 358.9330139160156,26.117000579833984 C353.7489929199219,26.117000579833984 349.5459899902344,21.856000900268555 349.5459899902344,16.599000930786133 C349.5459899902344,11.342000007629395 353.7489929199219,7.079999923706055 358.9330139160156,7.079999923706055 C364.11700439453125,7.079999923706055 368.32000732421875,11.342000007629395 368.32000732421875,16.599000930786133z"></path></g></g><g transform="matrix(0,0,0,0,202.71719360351562,195.49282836914062)" opacity="1" style="display: block;"><g opacity="1" transform="matrix(1,0,0,1,0,0)"><path stroke-linecap="butt" stroke-linejoin="miter" fill-opacity="0" stroke-miterlimit="10" stroke="rgb(255,246,238)" stroke-opacity="1" stroke-width="1" d=" M-182.59100341796875,-133.20700073242188 C-182.59100341796875,-127.94999694824219 -186.7949981689453,-123.68900299072266 -191.97900390625,-123.68900299072266 C-197.16299438476562,-123.68900299072266 -201.36500549316406,-127.94999694824219 -201.36500549316406,-133.20700073242188 C-201.36500549316406,-138.46400451660156 -197.16299438476562,-142.7259979248047 -191.97900390625,-142.7259979248047 C-186.7949981689453,-142.7259979248047 -182.59100341796875,-138.46400451660156 -182.59100341796875,-133.20700073242188z"></path></g></g><g transform="matrix(0.7875000238418579,0,0,0.824999988079071,353.9006652832031,305.38861083984375)" opacity="1" style="display: block;"><g opacity="1" transform="matrix(1,0,0,1,0,0)"><path fill="rgb(46,24,11)" fill-opacity="1" d=" M-211.79600524902344,-42.316001892089844 C-215.66299438476562,-55.643001556396484 -205.8459930419922,-69.00499725341797 -192.1909942626953,-69.00499725341797 C-192.1909942626953,-69.00499725341797 -219.73699951171875,-69.00499725341797 -219.73699951171875,-69.00499725341797 C-233.39199829101562,-69.00499725341797 -243.20700073242188,-55.643001556396484 -239.3419952392578,-42.316001892089844 C-239.3419952392578,-42.316001892089844 -178.17599487304688,168.5279998779297 -178.17599487304688,168.5279998779297 C-178.17599487304688,168.5279998779297 -150.6300048828125,168.5279998779297 -150.6300048828125,168.5279998779297 C-150.6300048828125,168.5279998779297 -211.79600524902344,-42.316001892089844 -211.79600524902344,-42.316001892089844z"></path></g><g opacity="1" transform="matrix(1,0,0,1,0,0)"><path fill="rgb(224,119,82)" fill-opacity="1" d=" M-211.79600524902344,-42.316001892089844 C-211.79600524902344,-42.316001892089844 -150.6300048828125,168.5279998779297 -150.6300048828125,168.5279998779297 C-150.6300048828125,168.5279998779297 64.63899993896484,168.5279998779297 64.63899993896484,168.5279998779297 C64.63899993896484,168.5279998779297 0.0560000017285347,-54.09400177001953 0.0560000017285347,-54.09400177001953 C-2.509000062942505,-62.9370002746582 -10.48900032043457,-69.00499725341797 -19.548999786376953,-69.00499725341797 C-19.548999786376953,-69.00499725341797 -192.1909942626953,-69.00499725341797 -192.1909942626953,-69.00499725341797 C-205.8459930419922,-69.00499725341797 -215.66299438476562,-55.643001556396484 -211.79600524902344,-42.316001892089844z"></path></g></g><g transform="matrix(0.7825155854225159,0.09267555922269821,-0.08846303820610046,0.8197781443595886,351.117431640625,301.6082458496094)" opacity="1" style="display: block;"><g opacity="1" transform="matrix(1,0,0,1,0,0)"><path fill="rgb(244,174,174)" fill-opacity="1" d=" M33.14500045776367,-45.54800033569336 C33.14500045776367,-45.54800033569336 66.55799865722656,-38.558998107910156 86.09500122070312,-12.305999755859375 C105.63200378417969,13.946999549865723 154.66400146484375,92.62000274658203 154.66400146484375,92.62000274658203 C154.66400146484375,92.62000274658203 125.35800170898438,140.24099731445312 125.35800170898438,140.24099731445312 C125.35800170898438,140.24099731445312 57.59000015258789,55.46200180053711 57.59000015258789,55.46200180053711 C57.59000015258789,55.46200180053711 33.14500045776367,-45.54800033569336 33.14500045776367,-45.54800033569336z"></path></g><g opacity="1" transform="matrix(1,0,0,1,0,0)"><path fill="rgb(46,24,11)" fill-opacity="1" d=" M57.59000015258789,55.46200180053711 C57.59000015258789,55.46200180053711 65.0510025024414,33.26900100708008 65.0510025024414,33.26900100708008 C65.0510025024414,33.26900100708008 86.22200012207031,92.60600280761719 86.22200012207031,92.60600280761719 C86.22200012207031,92.60600280761719 57.59000015258789,55.46200180053711 57.59000015258789,55.46200180053711z"></path></g></g><g transform="matrix(0.7875000238418579,0.000013702742762689013,-0.000013079890777589753,0.824999988079071,353.899169921875,305.3884582519531)" opacity="1" style="display: block;"><g opacity="1" transform="matrix(1,0,0,1,0,0)"><path fill="rgb(46,24,11)" fill-opacity="1" d=" M-44.63199996948242,-161.4010009765625 C-44.63199996948242,-161.4010009765625 -47.27799987792969,-146.36500549316406 -59.63800048828125,-135.33299255371094 C-70.10299682617188,-125.99199676513672 -89.3239974975586,-96.08499908447266 -83.1989974975586,-58.75600051879883 C-83.1989974975586,-58.75600051879883 77.55699920654297,-50.86000061035156 77.55699920654297,-50.86000061035156 C81.03900146484375,-58.678001403808594 92.2979965209961,-67.26399993896484 75.00599670410156,-100.31999969482422 C68.197998046875,-113.33399963378906 70.19400024414062,-136.6699981689453 70.19400024414062,-136.6699981689453 C70.19400024414062,-136.6699981689453 60.262001037597656,-162.1719970703125 60.262001037597656,-162.1719970703125 C60.262001037597656,-162.1719970703125 -3.2839999198913574,-171.01499938964844 -3.2839999198913574,-171.01499938964844 C-3.2839999198913574,-171.01499938964844 -44.63199996948242,-161.4010009765625 -44.63199996948242,-161.4010009765625z"></path></g></g><g transform="matrix(0.7875000238418579,0,0,0.824999988079071,353.9006652832031,305.38861083984375)" opacity="1" style="display: block;"><g opacity="1" transform="matrix(1,0,0,1,0,0)"><g opacity="1" transform="matrix(1,0,0,1,0,0)"><path fill="rgb(255,197,197)" fill-opacity="1" d=" M57.5890007019043,55.46200180053711 C54.89699935913086,57.63600158691406 49.49800109863281,132.20599365234375 63.209999084472656,154.43899536132812 C63.209999084472656,154.43899536132812 -78.38899993896484,154.43899536132812 -78.38899993896484,154.43899536132812 C-78.38899993896484,154.43899536132812 -117.02300262451172,79.20099639892578 -117.02300262451172,79.20099639892578 C-117.02300262451172,79.20099639892578 -80.8239974975586,-34.61199951171875 -80.8239974975586,-34.61199951171875 C-80.8239974975586,-34.61199951171875 -64.79199981689453,-44.474998474121094 -37.137001037597656,-50.50899887084961 C-37.137001037597656,-50.50899887084961 24.302000045776367,-40.904998779296875 24.302000045776367,-40.904998779296875 C24.302000045776367,-40.904998779296875 33.14500045776367,-45.54800033569336 33.14500045776367,-45.54800033569336 C33.14500045776367,-45.54800033569336 59.7130012512207,1.2580000162124634 59.7130012512207,1.2580000162124634 C59.7130012512207,1.2580000162124634 57.5890007019043,55.46200180053711 57.5890007019043,55.46200180053711z"></path></g><g opacity="1" transform="matrix(1,0,0,1,0,0)"><path fill="rgb(255,197,197)" fill-opacity="1" d=" M59.7130012512207,1.2580000162124634 C59.7130012512207,1.2580000162124634 80.04100036621094,36.979000091552734 56.869998931884766,76.96199798583984 C33.69900131225586,116.94499969482422 28.722999572753906,22.9060001373291 28.722999572753906,22.9060001373291 C28.722999572753906,22.9060001373291 59.7130012512207,1.2580000162124634 59.7130012512207,1.2580000162124634z"></path></g></g><g opacity="1" transform="matrix(1,0,0,1,0,0)"><path fill="rgb(240,178,139)" fill-opacity="1" d=" M-14.505000114440918,-102.74600219726562 C-14.505000114440918,-102.74600219726562 -18.229000091552734,-86.63500213623047 -18.229000091552734,-86.63500213623047 C-18.229000091552734,-86.63500213623047 -21.95599937438965,-50.20000076293945 -21.95599937438965,-50.20000076293945 C-23.17099952697754,-38.0989990234375 -14.027999877929688,-39.40800094604492 -2.7739999294281006,-37.84199905395508 C-2.7739999294281006,-37.84199905395508 11.550999641418457,-35.8489990234375 11.550999641418457,-35.8489990234375 C15.442999839782715,-35.30699920654297 19.051000595092773,-38.292999267578125 19.551000595092773,-42.46900177001953 C19.551000595092773,-42.46900177001953 24.020999908447266,-79.78099822998047 24.020999908447266,-79.78099822998047 C24.020999908447266,-79.78099822998047 -14.505000114440918,-102.74600219726562 -14.505000114440918,-102.74600219726562z"></path></g><g opacity="1" transform="matrix(1,0,0,1,0,0)"><path fill="rgb(240,178,139)" fill-opacity="1" d=" M-9.482000350952148,-56.542999267578125 C-9.482000350952148,-56.542999267578125 -43.26300048828125,-49.172000885009766 -43.26300048828125,-49.172000885009766 C-43.26300048828125,-49.172000885009766 -31.950000762939453,-23.665000915527344 5.677000045776367,-23.665000915527344 C35.42399978637695,-23.665000915527344 38.67100143432617,-44.04600143432617 38.67100143432617,-44.04600143432617 C38.67100143432617,-44.04600143432617 16.944000244140625,-54.14899826049805 16.944000244140625,-54.14899826049805 C16.944000244140625,-54.14899826049805 -9.482000350952148,-56.542999267578125 -9.482000350952148,-56.542999267578125z"></path></g></g><g transform="matrix(0.7865801453590393,-0.039865072816610336,0.03805302456021309,0.8240363001823425,367.0655212402344,292.57879638671875)" opacity="1" style="display: block;"><g opacity="1" transform="matrix(1,0,0,1,0,0)"><path fill="rgb(240,178,139)" fill-opacity="1" d=" M10.217000007629395,119.59400177001953 C10.217000007629395,119.59400177001953 41.3129997253418,119.59400177001953 41.3129997253418,119.59400177001953 C46.597999572753906,119.59400177001953 51.47600173950195,122.16799926757812 54.097999572753906,126.33799743652344 C54.097999572753906,126.33799743652344 71.76599884033203,154.43899536132812 71.76599884033203,154.43899536132812 C71.76599884033203,154.43899536132812 64.75,158.25 57.5,158.18899536132812 C49.694000244140625,158.1230010986328 45.68600082397461,154.43899536132812 45.68600082397461,154.43899536132812 C45.68600082397461,154.43899536132812 36.87300109863281,143.77099609375 36.87300109863281,143.77099609375 C36.87300109863281,143.77099609375 8.9350004196167,156.3350067138672 -1.8990000486373901,137.01600646972656 C-1.8990000486373901,137.01600646972656 10.217000007629395,119.59400177001953 10.217000007629395,119.59400177001953z"></path></g></g><g transform="matrix(0.7749933004379272,-0.14644832909107208,0.1397915929555893,0.8118976950645447,353.8625793457031,294.7406311035156)" opacity="1" style="display: block;"><g opacity="1" transform="matrix(1,0,0,1,0,0)"><path fill="rgb(255,197,197)" fill-opacity="1" d=" M-91.64800262451172,95.00399780273438 C-77.78299713134766,69.83200073242188 -45.30799865722656,12.178999900817871 -45.30799865722656,12.178999900817871 C-45.30799865722656,12.178999900817871 -72.54900360107422,-36.077999114990234 -72.54900360107422,-36.077999114990234 C-72.54900360107422,-36.077999114990234 -99.99199676513672,-30.101999282836914 -115.21299743652344,-0.7870000004768372 C-129.05499267578125,25.871000289916992 -164.10299682617188,86.84400177001953 -160.48800659179688,129.97999572753906 C-159.8489990234375,137.6020050048828 -154.48899841308594,144.08299255371094 -147.10000610351562,146.0590057373047 C-100.13700103759766,158.61900329589844 2.8010001182556152,154.43899536132812 2.8010001182556152,154.43899536132812 C2.8010001182556152,154.43899536132812 14.437999725341797,114.7490005493164 14.437999725341797,114.7490005493164 C14.437999725341797,114.7490005493164 -91.64800262451172,95.00399780273438 -91.64800262451172,95.00399780273438z"></path></g><g opacity="1" transform="matrix(1,0,0,1,0,0)"><g opacity="1" transform="matrix(1,0,0,1,0,0)"><path stroke-linecap="butt" stroke-linejoin="miter" fill-opacity="0" stroke-miterlimit="10" stroke="rgb(46,24,11)" stroke-opacity="1" stroke-width="0.89" d=" M13.017000198364258,119.59400177001953 C13.017000198364258,119.59400177001953 14.437999725341797,114.7490005493164 14.437999725341797,114.7490005493164 C14.437999725341797,114.7490005493164 -108.28800201416016,91.09400177001953 -108.28800201416016,91.09400177001953"></path></g><g opacity="1" transform="matrix(1,0,0,1,0,0)"><path fill="rgb(46,24,11)" fill-opacity="1" d=" M-58.16999816894531,35.053001403808594 C-58.16999816894531,35.053001403808594 -73.46299743652344,97.89299774169922 -73.46299743652344,97.89299774169922 C-73.46299743652344,97.89299774169922 -91.64800262451172,95.00399780273438 -91.64800262451172,95.00399780273438 C-91.64800262451172,95.00399780273438 -58.16999816894531,35.053001403808594 -58.16999816894531,35.053001403808594z"></path></g></g></g><g transform="matrix(0.7875000238418579,0.000008060436812229455,-0.000007694054147577845,0.824999988079071,353.9000549316406,305.3885498046875)" opacity="1" style="display: block;"><g opacity="1" transform="matrix(1,0,0,1,0,0)"><g opacity="1" transform="matrix(1,0,0,1,0,0)"><path fill="rgb(216,144,108)" fill-opacity="1" d=" M32.5620002746582,-115.96499633789062 C31.770999908447266,-107.81400299072266 37.73699951171875,-100.56500244140625 45.887001037597656,-99.77400207519531 C54.0369987487793,-98.98300170898438 61.2859992980957,-104.9489974975586 62.07699966430664,-113.0999984741211 C62.86800003051758,-121.25 56.902000427246094,-128.49899291992188 48.75199890136719,-129.2899932861328 C40.60200119018555,-130.08099365234375 33.35300064086914,-124.11499786376953 32.5620002746582,-115.96499633789062z"></path></g></g><g opacity="1" transform="matrix(1,0,0,1,0,0)"><path fill="rgb(240,178,139)" fill-opacity="1" d=" M60.98500061035156,-145.49899291992188 C60.98500061035156,-145.49899291992188 55.0099983215332,-102.56500244140625 55.0099983215332,-102.56500244140625 C52.952999114990234,-87.78199768066406 42.8489990234375,-78.01100158691406 29.56599998474121,-74.51000213623047 C20.929000854492188,-72.23300170898438 11.744999885559082,-73.30400085449219 3.4820001125335693,-76.69499969482422 C3.4820001125335693,-76.69499969482422 -18.43400001525879,-85.69000244140625 -18.43400001525879,-85.69000244140625 C-18.43400001525879,-85.69000244140625 -14.260000228881836,-140.27200317382812 -14.260000228881836,-140.27200317382812 C-14.260000228881836,-140.27200317382812 16.489999771118164,-160.15199279785156 16.489999771118164,-160.15199279785156 C16.489999771118164,-160.15199279785156 60.98500061035156,-145.49899291992188 60.98500061035156,-145.49899291992188z"></path></g><g opacity="1" transform="matrix(1,0,0,1,0,0)"><path fill="rgb(46,24,11)" fill-opacity="1" d=" M-31.535999298095703,-130.5279998779297 C-30.965999603271484,-127.75 18.222000122070312,-140.1230010986328 21.760000228881836,-172.3730010986328 C21.760000228881836,-172.3730010986328 -40.027000427246094,-171.90699768066406 -31.535999298095703,-130.5279998779297z"></path></g><g opacity="1" transform="matrix(1,0,0,1,0,0)"><path fill="rgb(46,24,11)" fill-opacity="1" d=" M-44.63199996948242,-161.4010009765625 C-40.63999938964844,-182.4929962158203 -23.19499969482422,-204.58299255371094 23.96500015258789,-198.4010009765625 C49.444000244140625,-195.06100463867188 79.36900329589844,-168.875 70.62899780273438,-137.88900756835938 C70.40299987792969,-137.08900451660156 70.19400024414062,-136.6699981689453 70.19400024414062,-136.6699981689453 C37.90399932861328,-136.99600219726562 8.786999702453613,-157.4499969482422 8.786999702453613,-157.4499969482422 C8.786999702453613,-157.4499969482422 -44.63199996948242,-161.4010009765625 -44.63199996948242,-161.4010009765625z"></path></g><g opacity="1" transform="matrix(1,0,0,1,0,0)"><g opacity="1" transform="matrix(1,0,0,1,0,0)"><path fill="rgb(240,178,139)" fill-opacity="1" d=" M-38.24100112915039,-121.31300354003906 C-39.053001403808594,-112.94499969482422 -32.928001403808594,-105.50299835205078 -24.56100082397461,-104.69100189208984 C-16.194000244140625,-103.87899780273438 -8.751999855041504,-110.00299835205078 -7.940000057220459,-118.37100219726562 C-7.127999782562256,-126.73799896240234 -13.253000259399414,-134.18099975585938 -21.6200008392334,-134.9929962158203 C-29.98699951171875,-135.80499267578125 -37.42900085449219,-129.67999267578125 -38.24100112915039,-121.31300354003906z"></path></g><g opacity="1" transform="matrix(1,0,0,1,0,0)"><path stroke-linecap="round" stroke-linejoin="round" fill-opacity="0" stroke="rgb(46,24,11)" stroke-opacity="1" stroke-width="1.3" d=" M-18.232999801635742,-114.822998046875 C-18.232999801635742,-114.822998046875 -17.166000366210938,-125.80699920654297 -27.83799934387207,-125.0979995727539"></path></g></g></g><g transform="matrix(0.7875000238418579,0.000008060436812229455,-0.000007694054147577845,0.824999988079071,348.387939453125,305.388916015625)" opacity="1" style="display: block;"><g opacity="1" transform="matrix(1,0,0,1,0,0)"><path stroke-linecap="round" stroke-linejoin="round" fill-opacity="0" stroke="rgb(46,24,11)" stroke-opacity="1" stroke-width="1.3" d=" M32.492000579833984,-99.92400360107422 C32.492000579833984,-99.92400360107422 37.382999420166016,-100.02899932861328 37.382999420166016,-100.02899932861328 C37.382999420166016,-100.02899932861328 37.40700149536133,-109.31300354003906 37.40700149536133,-109.31300354003906"></path></g></g><g transform="matrix(0.7875000238418579,0.000008060436812229455,-0.000007694054147577845,0.824999988079071,348.387939453125,305.388916015625)" opacity="1" style="display: block;"><g opacity="1" transform="matrix(1,0,0,1,0,0)"><path fill="rgb(46,24,11)" fill-opacity="1" d=" M22.94700050354004,-115.8239974975586 C22.665000915527344,-113.81800079345703 20.79800033569336,-112.41600036621094 18.777000427246094,-112.69499969482422 C16.756000518798828,-112.9739990234375 15.345999717712402,-114.82599639892578 15.628000259399414,-116.83300018310547 C15.90999984741211,-118.83899688720703 17.777000427246094,-120.24099731445312 19.79800033569336,-119.96199798583984 C21.819000244140625,-119.68299865722656 23.229000091552734,-117.83100128173828 22.94700050354004,-115.8239974975586z"></path></g></g><g transform="matrix(0.7875000238418579,0.000008060436812229455,-0.000007694054147577845,0.824999988079071,348.3875427246094,305.3880920410156)" opacity="1" style="display: block;"><g opacity="1" transform="matrix(1,0,0,1,0,0)"><path fill="rgb(46,24,11)" fill-opacity="1" d=" M49.185001373291016,-114.16600036621094 C48.948001861572266,-112.47899627685547 47.37799835205078,-111.3010025024414 45.67900085449219,-111.53500366210938 C43.97999954223633,-111.76899719238281 42.79399871826172,-113.3280029296875 43.03099822998047,-115.01499938964844 C43.268001556396484,-116.7020034790039 44.8380012512207,-117.87899780273438 46.5369987487793,-117.6449966430664 C48.236000061035156,-117.41100311279297 49.422000885009766,-115.85299682617188 49.185001373291016,-114.16600036621094z"></path></g></g><g transform="matrix(0.7875000238418579,0.000008060436812229455,-0.000007694054147577845,0.824999988079071,348.387939453125,305.3880920410156)" opacity="1" style="display: block;"><g opacity="1" transform="matrix(1,0,0,1,0,0)"><path fill="rgb(46,24,11)" fill-opacity="1" d=" M17.67799949645996,-133.18600463867188 C17.67799949645996,-133.18600463867188 26.445999145507812,-133.66299438476562 26.43600082397461,-130.12600708007812 C26.43600082397461,-130.12600708007812 26.363000869750977,-127.73300170898438 18.716999053955078,-127.46299743652344 C11.071999549865723,-127.19400024414062 9.102999687194824,-127.802001953125 8.468000411987305,-130.06900024414062 C7.833000183105469,-132.33599853515625 13.574999809265137,-133.2740020751953 17.67799949645996,-133.18600463867188z"></path></g></g><g transform="matrix(0.7875000238418579,0.000008060436812229455,-0.000007694054147577845,0.824999988079071,348.387939453125,305.388916015625)" opacity="1" style="display: block;"><g opacity="1" transform="matrix(1,0,0,1,0,0)"><path fill="rgb(46,24,11)" fill-opacity="1" d=" M50.641998291015625,-129.8350067138672 C50.641998291015625,-129.8350067138672 44.887001037597656,-131.89999389648438 43.25899887084961,-129.13699340820312 C43.25899887084961,-129.13699340820312 42.202999114990234,-127.25499725341797 47.290000915527344,-125.56900024414062 C52.37699890136719,-123.88300323486328 54,-123.97799682617188 55.47999954223633,-125.625 C56.959999084472656,-127.27200317382812 53.47999954223633,-129.11199951171875 50.641998291015625,-129.8350067138672z"></path></g></g><g transform="matrix(0.7875000238418579,0.000008060436812229455,-0.000007694054147577845,0.824999988079071,348.3875427246094,305.38848876953125)" opacity="1" style="display: block;"><g opacity="1" transform="matrix(1,0,0,1,0,0)"><path stroke-linecap="round" stroke-linejoin="round" fill-opacity="0" stroke="rgb(46,24,11)" stroke-opacity="1" stroke-width="1.3" d=" M16.323999404907227,-97.1520004272461 C16.323999404907227,-97.1520004272461 19.950000762939453,-91.98899841308594 30.4950008392334,-92.96499633789062"></path></g></g><g transform="matrix(0.7875000238418579,0,0,0.824999988079071,353.9006652832031,305.38861083984375)" opacity="1" style="display: block;"><g opacity="1" transform="matrix(1,0,0,1,0,0)"><g opacity="1" transform="matrix(1,0,0,1,0,0)"><path fill="rgb(19,27,30)" fill-opacity="1" d=" M-33.88100051879883,168.5279998779297 C-33.88100051879883,168.5279998779297 90.98899841308594,168.5279998779297 90.98899841308594,168.5279998779297 C90.98899841308594,168.5279998779297 90.98899841308594,154.43899536132812 90.98899841308594,154.43899536132812 C90.98899841308594,154.43899536132812 -33.88100051879883,154.43899536132812 -33.88100051879883,154.43899536132812 C-37.770999908447266,154.43899536132812 -40.92499923706055,157.59300231933594 -40.92499923706055,161.48399353027344 C-40.92499923706055,161.48399353027344 -40.92499923706055,161.48399353027344 -40.92499923706055,161.48399353027344 C-40.92499923706055,165.37399291992188 -37.770999908447266,168.5279998779297 -33.88100051879883,168.5279998779297z"></path></g><g opacity="1" transform="matrix(1,0,0,1,0,0)"><g opacity="1" transform="matrix(1,0,0,1,0,0)"><path fill="rgb(39,50,55)" fill-opacity="1" d=" M74.552001953125,168.5279998779297 C74.552001953125,168.5279998779297 253.82699584960938,168.5279998779297 253.82699584960938,168.5279998779297 C263.35699462890625,168.5279998779297 271.7200012207031,162.1750030517578 274.2749938964844,152.99400329589844 C274.2749938964844,152.99400329589844 304.72698974609375,37.07699966430664 304.72698974609375,37.07699966430664 C307.5790100097656,26.82900047302246 301.68701171875,16.684999465942383 291.04901123046875,16.684999465942383 C291.04901123046875,16.684999465942383 125.26499938964844,16.684999465942383 125.26499938964844,16.684999465942383 C118.90399932861328,16.684999465942383 113.34200286865234,20.974000930786133 111.7249984741211,27.125999450683594 C111.7249984741211,27.125999450683594 74.552001953125,168.5279998779297 74.552001953125,168.5279998779297z"></path></g><g opacity="1" transform="matrix(1,0,0,1,0,0)"><path fill="rgb(255,255,255)" fill-opacity="1" d=" M187.0240020751953,98.43599700927734 C187.0240020751953,107.08200073242188 194.0330047607422,114.08999633789062 202.67799377441406,114.08999633789062 C211.32400512695312,114.08999633789062 218.33200073242188,107.08200073242188 218.33200073242188,98.43599700927734 C218.33200073242188,89.79100036621094 211.32400512695312,82.78199768066406 202.67799377441406,82.78199768066406 C194.0330047607422,82.78199768066406 187.0240020751953,89.79100036621094 187.0240020751953,98.43599700927734z"></path></g></g></g><g opacity="1" transform="matrix(1,0,0,1,0,0)"><g opacity="1" transform="matrix(1,0,0,1,0,0)"><path stroke-linecap="butt" stroke-linejoin="miter" fill-opacity="0" stroke-miterlimit="10" stroke="rgb(252,191,134)" stroke-opacity="1" stroke-width="1.4" d=" M-271.2569885253906,168.5279998779297 C-271.2569885253906,168.5279998779297 382.197998046875,168.5279998779297 382.197998046875,168.5279998779297"></path></g><g opacity="1" transform="matrix(1,0,0,1,0,0)"><path stroke-linecap="butt" stroke-linejoin="miter" fill-opacity="0" stroke-miterlimit="10" stroke="rgb(252,191,134)" stroke-opacity="1" stroke-width="1.4" d=" M-357.8059997558594,168.5279998779297 C-357.8059997558594,168.5279998779297 -301.9410095214844,168.5279998779297 -301.9410095214844,168.5279998779297"></path></g></g></g><g transform="matrix(0.7875000238418579,0,0,0.824999988079071,353.9006652832031,305.38861083984375)" opacity="1" style="display: block;"><g opacity="1" transform="matrix(1,0,0,1,0,0)"><path fill="rgb(219,195,175)" fill-opacity="1" d=" M-55.029998779296875,242.27099609375 C-55.029998779296875,246.55599975585938 -71.0979995727539,250.031005859375 -90.91999816894531,250.031005859375 C-110.74199676513672,250.031005859375 -126.80999755859375,246.55599975585938 -126.80999755859375,242.27099609375 C-126.80999755859375,237.98599243164062 -110.74199676513672,234.51199340820312 -90.91999816894531,234.51199340820312 C-71.0979995727539,234.51199340820312 -55.029998779296875,237.98599243164062 -55.029998779296875,242.27099609375z"></path></g><g opacity="1" transform="matrix(1,0,0,1,0,0)"><g opacity="1" transform="matrix(1,0,0,1,0,0)"><g opacity="1" transform="matrix(1,0,0,1,0,0)"><path fill="rgb(252,191,134)" fill-opacity="1" d=" M-74.05699920654297,192.697998046875 C-74.05699920654297,192.697998046875 -65.0250015258789,247.96800231933594 -106.2699966430664,249.9810028076172 C-147.51499938964844,251.99400329589844 -137.82699584960938,192.697998046875 -137.82699584960938,192.697998046875 C-137.82699584960938,192.697998046875 -74.05699920654297,192.697998046875 -74.05699920654297,192.697998046875z"></path></g><g opacity="1" transform="matrix(1,0,0,1,0,0)"><path fill="rgb(252,191,134)" fill-opacity="1" d=" M-140.6540069580078,234.50399780273438 C-150.48800659179688,234.79800415039062 -158.72799682617188,227.03500366210938 -159.02200317382812,217.2010040283203 C-159.3159942626953,207.36700439453125 -151.552001953125,199.1269989013672 -141.71800231933594,198.83299255371094 C-131.88400268554688,198.53900146484375 -123.6449966430664,206.302001953125 -123.35099792480469,216.13600158691406 C-123.05699920654297,225.97000122070312 -130.82000732421875,234.2100067138672 -140.6540069580078,234.50399780273438z M-141.54800415039062,204.53599548339844 C-148.23699951171875,204.73599243164062 -153.51699829101562,210.3419952392578 -153.3179931640625,217.031005859375 C-153.1179962158203,223.72000122070312 -147.51300048828125,229.00100708007812 -140.82400512695312,228.80099487304688 C-134.13499450683594,228.6009979248047 -128.85400390625,222.9949951171875 -129.0540008544922,216.30599975585938 C-129.25399780273438,209.61700439453125 -134.85899353027344,204.33599853515625 -141.54800415039062,204.53599548339844z"></path></g><g opacity="1" transform="matrix(1,0,0,1,0,0)"><path fill="rgb(19,27,30)" fill-opacity="1" d=" M-74.05699920654297,192.697998046875 C-74.05699920654297,194.94500732421875 -88.33200073242188,196.76699829101562 -105.94200134277344,196.76699829101562 C-123.552001953125,196.76699829101562 -137.82699584960938,194.94500732421875 -137.82699584960938,192.697998046875 C-137.82699584960938,190.4510040283203 -123.552001953125,188.62899780273438 -105.94200134277344,188.62899780273438 C-88.33200073242188,188.62899780273438 -74.05699920654297,190.4510040283203 -74.05699920654297,192.697998046875z"></path></g></g></g></g><g transform="matrix(0.7875000238418579,0,0,0.824999988079071,359.61004638671875,305.8011169433594)" opacity="1" style="display: none;"><g opacity="1" transform="matrix(1,0,0,1,0,0)"><path stroke-linecap="butt" stroke-linejoin="miter" fill-opacity="0" stroke-miterlimit="4" stroke="rgb(152,151,150)" stroke-opacity="1" stroke-width="2" d="M0 0"></path></g><g opacity="1" transform="matrix(1.1355199813842773,0,0,1,0,0)"><path stroke-linecap="butt" stroke-linejoin="miter" fill-opacity="0" stroke-miterlimit="4" stroke="rgb(152,151,150)" stroke-opacity="1" stroke-width="2" d="M0 0"></path></g><g opacity="1" transform="matrix(0.8666700124740601,0,0,1,0,0)"><path stroke-linecap="butt" stroke-linejoin="miter" fill-opacity="0" stroke-miterlimit="4" stroke="rgb(152,151,150)" stroke-opacity="1" stroke-width="2" d="M0 0"></path></g></g><g transform="matrix(0.7875000238418579,0,0,0.824999988079071,359.61004638671875,305.8011169433594)" opacity="1" style="display: none;"><g opacity="1" transform="matrix(1,0,0,1,0,0)"><path stroke-linecap="butt" stroke-linejoin="miter" fill-opacity="0" stroke-miterlimit="4" stroke="rgb(152,151,150)" stroke-opacity="1" stroke-width="2" d="M0 0"></path></g><g opacity="1" transform="matrix(1.1355199813842773,0,0,1,0,0)"><path stroke-linecap="butt" stroke-linejoin="miter" fill-opacity="0" stroke-miterlimit="4" stroke="rgb(152,151,150)" stroke-opacity="1" stroke-width="2" d="M0 0"></path></g><g opacity="1" transform="matrix(0.8666700124740601,0,0,1,0,0)"><path stroke-linecap="butt" stroke-linejoin="miter" fill-opacity="0" stroke-miterlimit="4" stroke="rgb(152,151,150)" stroke-opacity="1" stroke-width="2" d="M0 0"></path></g></g><g transform="matrix(0.7875000238418579,0,0,0.824999988079071,359.61004638671875,305.8011169433594)" opacity="1" style="display: none;"><g opacity="1" transform="matrix(1,0,0,1,0,0)"><path stroke-linecap="butt" stroke-linejoin="miter" fill-opacity="0" stroke-miterlimit="4" stroke="rgb(152,151,150)" stroke-opacity="1" stroke-width="2" d="M0 0"></path></g><g opacity="1" transform="matrix(1.1355199813842773,0,0,1,0,0)"><path stroke-linecap="butt" stroke-linejoin="miter" fill-opacity="0" stroke-miterlimit="4" stroke="rgb(152,151,150)" stroke-opacity="1" stroke-width="2" d="M0 0"></path></g><g opacity="1" transform="matrix(0.8666700124740601,0,0,1,0,0)"><path stroke-linecap="butt" stroke-linejoin="miter" fill-opacity="0" stroke-miterlimit="4" stroke="rgb(152,151,150)" stroke-opacity="1" stroke-width="2" d="M0 0"></path></g></g></g></svg>
