<svg width="18" height="19" viewBox="0 0 18 19" fill="none" xmlns="http://www.w3.org/2000/svg">
<g clip-path="url(#clip0_147_6683)">
<path d="M3.375 16.7267C3.99632 16.7267 4.5 16.2231 4.5 15.6017C4.5 14.9804 3.99632 14.4767 3.375 14.4767C2.75368 14.4767 2.25 14.9804 2.25 15.6017C2.25 16.2231 2.75368 16.7267 3.375 16.7267Z" fill="white"/>
<path d="M15.75 11.1017H14.0625V9.97675C14.0622 9.67848 13.9435 9.39253 13.7326 9.18163C13.5217 8.97072 13.2358 8.85209 12.9375 8.85175H10.6875C10.3892 8.85209 10.1033 8.97072 9.89238 9.18163C9.68148 9.39253 9.56284 9.67848 9.5625 9.97675V11.1017H7.875C7.57674 11.1021 7.29079 11.2207 7.07988 11.4316C6.86898 11.6425 6.75034 11.9285 6.75 12.2267V16.7267C6.75034 17.025 6.86898 17.311 7.07988 17.5219C7.29079 17.7328 7.57674 17.8514 7.875 17.8517H15.75C16.0483 17.8514 16.3342 17.7328 16.5451 17.5219C16.756 17.311 16.8747 17.025 16.875 16.7267V12.2267C16.8747 11.9285 16.756 11.6425 16.5451 11.4316C16.3342 11.2207 16.0483 11.1021 15.75 11.1017ZM10.6875 9.97675H12.9375V11.1017H10.6875V9.97675ZM15.75 16.7267H7.875V12.2267H15.75V16.7267Z" fill="white"/>
<path d="M5.625 4.35175H7.875V7.72675H9V4.35175H11.25V7.72675H12.375V4.35175H14.625V7.72675H15.75V4.3545C15.75 4.2064 15.7209 4.05974 15.6642 3.92291C15.6075 3.78608 15.5244 3.66175 15.4197 3.55702C15.315 3.4523 15.1907 3.36923 15.0538 3.31256C14.917 3.25589 14.7703 3.22673 14.6222 3.22675H2.25276C2.10465 3.22673 1.958 3.25589 1.82117 3.31256C1.68433 3.36923 1.56 3.4523 1.45528 3.55702C1.35055 3.66175 1.26749 3.78608 1.21082 3.92291C1.15415 4.05974 1.12499 4.2064 1.125 4.3545V12.2239C1.12497 12.372 1.15412 12.5187 1.21078 12.6555C1.26745 12.7923 1.35051 12.9167 1.45524 13.0214C1.55997 13.1262 1.6843 13.2092 1.82114 13.2659C1.95798 13.3226 2.10464 13.3518 2.25276 13.3517H5.625V4.35175ZM4.5 12.2267H2.25V4.35175H4.5V12.2267Z" fill="white"/>
</g>
<defs>
<clipPath id="clip0_147_6683">
<rect width="18" height="18" fill="white" transform="translate(0 0.976746)"/>
</clipPath>
</defs>
</svg>
