<svg width="137" height="108" viewBox="0 0 137 108" fill="none" xmlns="http://www.w3.org/2000/svg">
<path d="M29.2627 2.89545C48.876 28.9286 33.3346 19.0429 20.5315 39.8913C13.1448 52.2442 11.6189 70.2594 19.7214 82.0628C28.0619 94.141 40.8573 92.5888 52.5101 91.9948C59.5492 91.6358 64.6018 87.0093 69.1514 80.1812C73.3195 73.926 74.0352 63.521 72.6059 56.6583C70.4608 45.9529 65.8544 36.1671 58.2289 29.5788C49.888 22.4417 39.6186 19.3031 55.7128 2.95194C54.0437 2.44573 52.3319 1.11153 50.6577 1.38668C48.5356 2.17277 47.0534 2.60973 45.2214 2.75551C44.4473 2.8171 41.5636 0.14614 40.8474 0C39.6382 0.278427 38.2938 0.915099 36.9731 1.1272C34.6812 1.49565 32.0652 1.78865 29.5641 1.58238C29.3746 1.56708 29.1067 2.00841 29.1683 2.18844L29.2627 2.89545Z" fill="#FFD876"/>
<path d="M55.7128 2.95122C54.0437 2.44501 52.2529 0.808329 50.6577 1.38633C48.4882 2.17242 47.0527 2.60974 45.2207 2.75515" fill="#E6C66F"/>
<path d="M72.4231 56.711L72.4233 56.712C73.1346 60.1272 73.3127 64.4289 72.793 68.6564C72.2732 72.8851 71.0566 77.027 68.9887 80.1305C64.4463 86.9477 59.4279 91.5274 52.455 91.8829C51.7278 91.92 50.9967 91.9607 50.263 92.0016C39.2273 92.6161 27.588 93.2643 19.8153 82.0517C23.6901 84.8458 28.065 86.0191 32.6021 86.434C36.6518 86.8044 40.8401 86.5709 44.9212 86.3434C45.6565 86.3024 46.3884 86.2616 47.1154 86.2246C54.2214 85.8622 59.3074 81.1885 63.8639 74.3498C65.9642 71.1981 67.1897 67.0098 67.7126 62.7564C68.2356 58.502 68.0572 54.1698 67.3394 50.7224C65.8859 43.4686 63.3029 36.6311 59.4152 30.9186C66.2237 37.4395 70.4098 46.6621 72.4231 56.711Z" fill="#CD9D26" stroke="black" stroke-width="0.275421"/>
<path d="M50.724 1.38669C50.724 1.38669 45.5363 11.998 44.2629 24.9206C44.2629 24.9206 43.815 9.53586 45.3318 2.75442C45.2604 2.79196 46.2928 2.63452 47.6781 2.37285C48.5454 2.20849 49.7572 1.57547 50.724 1.38669Z" fill="#A97F36"/>
<path d="M36.9961 1.18309C36.9961 1.18309 38.4968 16.8889 41.9072 24.2603C41.9072 24.2603 38.8106 6.33258 40.8526 0.000488281C40.8526 0.000488281 40.0155 0.29714 39.0756 0.565001C38.5315 0.723531 37.5158 0.855093 36.9961 1.18309Z" fill="#A97E35"/>
<path d="M47.3804 18.9627L38.7185 19.4638C38.4152 19.4813 38.1576 19.2447 38.1492 18.9412L38.135 18.4302C38.1266 18.139 38.3515 17.8941 38.6423 17.8774L47.3039 17.3763C47.6071 17.3588 47.8651 17.5957 47.8735 17.8992L47.8877 18.4102C47.8957 18.701 47.6712 18.9459 47.3804 18.9627Z" fill="#4D3E23"/>
<path d="M47.8274 20.4403H38.7172C38.4439 20.4403 38.2227 20.2187 38.2227 19.9454V19.6393C38.2227 19.3659 38.4439 19.1443 38.7172 19.1443H47.8274C48.1007 19.1443 48.3219 19.3659 48.3219 19.6393V19.9454C48.3219 20.2187 48.1007 20.4403 47.8274 20.4403Z" fill="#362C18"/>
<path d="M36.7889 31.5394C37.732 27.2922 39.442 23.4416 41.4723 19.8989C41.6151 19.5414 41.297 19.4433 40.9394 19.3001L40.6661 19.1908C40.3086 19.0476 39.9023 19.2214 39.759 19.5789C37.3417 23.6212 36.0316 27.2062 35.2837 30.7095C35.1409 31.067 35.2717 31.5587 35.6088 31.8181L36.1329 32.148C36.4904 32.2912 36.6456 31.8969 36.7889 31.5394Z" fill="#362C18"/>
<path d="M42.1167 35.9093C41.6491 30.2908 40.8663 24.2561 39.906 18.7334C39.8389 18.2061 40.2285 18.1948 40.675 18.1379L41.0164 18.0942C41.4632 18.0373 41.8794 18.4185 41.9465 18.9459C43.0744 25.0728 43.8383 30.0011 44.0843 34.9567C44.1364 36.0066 43.5197 36.4323 42.6757 36.8543C42.2293 36.9115 42.1837 36.4366 42.1167 35.9093Z" fill="#4D3E23"/>
<path d="M2.20119 89.7189L1.72743 90.2922C0.97122 91.2076 1.40417 92.5976 2.54595 92.9223L44.2554 104.776L49.2919 98.0813C49.2919 98.0813 10.9517 83.7301 2.20119 89.7189Z" fill="#D1AA97"/>
<path d="M0.355876 87.3471C-0.407254 88.4586 0.111338 89.9911 1.3927 90.4106L41.9294 103.685L47.1696 97.1479C47.3653 96.8279 7.97953 82.0336 0.355876 87.3471Z" fill="#E8BCA9"/>
<path d="M118.716 76.9321C118.716 76.9321 89.3591 76.8957 84.9826 76.5965C80.6057 76.2976 64.8581 70.4051 53.2558 84.1964L41.787 86.3335C41.787 86.3335 29.1465 83.4749 26.0936 89.1331C26.0936 89.1331 9.38494 82.2241 2.40342 86.7151C1.80137 87.1021 1.91726 88.0198 2.5871 88.2716C9.04492 90.7042 35.5588 100.782 38.9728 103.578C38.9728 103.578 45.6063 107.465 48.5958 106.903C51.6935 106.32 78.2318 96.7036 89.4674 95.9273L123.016 96.6937L118.716 76.9321Z" fill="#FFD2B5"/>
<path d="M26.556 92.469C26.2586 91.9932 26.0754 91.4616 26.0285 90.8665C26.3012 91.5804 26.9247 92.3984 28.241 93.1362C29.8162 94.0191 32.3873 94.79 36.5543 95.139C40.7229 95.4881 46.4974 95.4157 54.4864 94.6049L54.5035 94.6031L54.5196 94.5973L61.3959 92.0928L55.0906 95.6748L55.0257 95.683C54.9651 95.6906 54.8752 95.7016 54.7579 95.7157C54.5235 95.7437 54.1798 95.7834 53.7434 95.8302C52.8705 95.9236 51.6269 96.045 50.1443 96.1568C47.1785 96.3803 43.259 96.565 39.4396 96.4106C35.6159 96.256 31.9095 95.7619 29.3597 94.6375C28.0857 94.0756 27.1143 93.3624 26.556 92.469Z" fill="#E8BCA9" stroke="black" stroke-width="0.275421"/>
<path d="M35.3868 88.1288C35.5723 89.2461 35.7567 91.3027 34.9086 92.5403C34.62 92.9616 34.1127 93.1762 33.6036 93.1423C31.8791 93.0279 27.5754 92.9867 27.3644 90.3737C27.0532 86.5252 32.4713 87.0777 34.4546 87.2578C34.9287 87.3011 35.3088 87.659 35.3868 88.1288Z" fill="#F9C5B6"/>
<path d="M89.6367 74.3581L92.6834 101.294L139.282 99.9868L141.171 66.9006L89.6367 74.3581Z" fill="#DDDDDD"/>
<path d="M96.5837 104.758L94.7845 71.0454L141.98 64.0249L138.513 104.454L96.5837 104.758Z" fill="#BDB4FE" stroke="black" stroke-width="0.550842"/>
<path d="M145.036 94.1361L95.8477 96.0731L96.5958 104.997L146.164 105.087L145.036 94.1361Z" fill="#9B8AFB"/>
<path d="M108.153 99.4349C108.452 100.81 107.58 102.167 106.204 102.467C104.829 102.766 103.471 101.895 103.172 100.519C102.873 99.1434 103.744 97.7866 105.12 97.4867C106.496 97.1875 107.853 98.0599 108.153 99.4349Z" fill="#E2E2E2"/>
<path d="M116.727 99.4151C117.025 100.79 116.154 102.148 114.779 102.447C113.404 102.746 112.045 101.874 111.746 100.499C111.447 99.1228 112.32 97.7664 113.695 97.4664C115.071 97.1672 116.428 98.0393 116.727 99.4151Z" fill="#E2E2E2"/>
</svg>
