<svg width="36" height="36" viewBox="0 0 36 36" fill="none" xmlns="http://www.w3.org/2000/svg">
<circle cx="18" cy="18" r="18" fill="#0698A0" fill-opacity="0.1"/>
<g clip-path="url(#clip0_2_71042)">
<path d="M21.0416 20.6249H22.4583V22.0416H21.0416V20.6249ZM21.0416 17.7916H22.4583V19.2083H21.0416V17.7916ZM21.0416 14.9583H22.4583V16.3749H21.0416V14.9583ZM18.7324 14.9583L19.6249 15.5533V14.9583H18.7324Z" fill="#3BAA90"/>
<path d="M16.084 12.125V13.1946L17.5007 14.1367V13.5417H23.8757V23.4583H21.0423V24.875H25.2923V12.125H16.084Z" fill="#3BAA90"/>
<path d="M14.7877 14.0374L19.6257 17.2603V24.8749H9.70898V17.4232L14.7877 14.0374ZM16.084 23.4582H18.209V17.9049L14.7877 15.7303L11.1257 18.0607V23.4582H13.2507V19.2082H16.084V23.4582Z" fill="#3BAA90"/>
</g>
<defs>
<clipPath id="clip0_2_71042">
<rect width="17" height="17" fill="white" transform="translate(9 10)"/>
</clipPath>
</defs>
</svg>
