<svg width="20" height="21" viewBox="0 0 20 21" fill="none" xmlns="http://www.w3.org/2000/svg">
<path fill-rule="evenodd" clip-rule="evenodd" d="M12.35 3.35659H15.8333C16.75 3.35659 17.5 4.10659 17.5 5.02326V16.6899C17.5 17.6066 16.75 18.3566 15.8333 18.3566H4.16667C4.05 18.3566 3.94167 18.3483 3.83333 18.3316C3.50833 18.2649 3.21667 18.0983 2.99167 17.8733C2.84167 17.7149 2.71667 17.5399 2.63333 17.3399C2.55 17.1399 2.5 16.9149 2.5 16.6899V5.02326C2.5 4.78993 2.55 4.57326 2.63333 4.38159C2.71667 4.18159 2.84167 3.99826 2.99167 3.84826C3.21667 3.62326 3.50833 3.45659 3.83333 3.38993C3.94167 3.36493 4.05 3.35659 4.16667 3.35659H7.65C8 2.38993 8.91667 1.68993 10 1.68993C11.0833 1.68993 12 2.38993 12.35 3.35659ZM5.83333 6.68993H14.1667V8.35659H5.83333V6.68993ZM14.1667 10.0233H5.83333V11.6899H14.1667V10.0233ZM11.6667 13.3566H5.83333V15.0233H11.6667V13.3566ZM10 3.14826C10.3417 3.14826 10.625 3.43159 10.625 3.77326C10.625 4.11493 10.3417 4.39826 10 4.39826C9.65833 4.39826 9.375 4.11493 9.375 3.77326C9.375 3.43159 9.65833 3.14826 10 3.14826ZM4.16667 16.6899H15.8333V5.02326H4.16667V16.6899Z" fill="#EAECF0"/>
</svg>
