<svg width="36" height="36" viewBox="0 0 36 36" fill="none" xmlns="http://www.w3.org/2000/svg">
<circle cx="18" cy="18" r="18" fill="#0698A0" fill-opacity="0.1"/>
<path fill-rule="evenodd" clip-rule="evenodd" d="M18.3984 13.6721C19.2704 12.6481 20.6064 12.0001 21.9984 12.0001C24.4624 12.0001 26.3984 13.9361 26.3984 16.4001C26.3984 19.4216 23.6829 21.884 19.5686 25.6149L19.5584 25.6241L18.3984 26.6801L17.2384 25.6321L17.2069 25.6034C13.1045 21.8755 10.3984 19.4164 10.3984 16.4001C10.3984 13.9361 12.3344 12.0001 14.7984 12.0001C16.1904 12.0001 17.5264 12.6481 18.3984 13.6721ZM18.3975 24.5201L18.4775 24.4401C22.2855 20.9921 24.7975 18.7121 24.7975 16.4001C24.7975 14.8001 23.5975 13.6001 21.9975 13.6001C20.7655 13.6001 19.5655 14.3921 19.1495 15.4881H17.6535C17.2295 14.3921 16.0295 13.6001 14.7975 13.6001C13.1975 13.6001 11.9975 14.8001 11.9975 16.4001C11.9975 18.7121 14.5095 20.9921 18.3175 24.4401L18.3975 24.5201Z" fill="#3BAA90"/>
</svg>
