<svg width="18" height="18" viewBox="0 0 18 18" fill="none" xmlns="http://www.w3.org/2000/svg">
<g clip-path="url(#clip0_147_6678)">
<path d="M17.7374 16.5819L15.4344 14.2789C16.0058 13.4773 16.3423 12.4971 16.3423 11.4398C16.3423 9.99116 15.7105 8.68741 14.7082 7.78906V4.08575C14.7082 3.63448 14.3424 3.26862 13.8911 3.26862H11.4397V0.817247C11.4397 0.365976 11.0739 0.00012207 10.6226 0.00012207H4.08562C3.63435 0.00012207 3.2685 0.365976 3.2685 0.817247V3.26862H0.817125C0.365854 3.26862 0 3.63448 0 4.08575V12.8017C0 13.253 0.365854 13.6188 0.817125 13.6188H7.04857C7.85219 15.2317 9.51847 16.3426 11.4395 16.3426C12.4969 16.3426 13.4771 16.0061 14.2789 15.4346L16.5818 17.7375C16.7414 17.897 16.9505 17.9768 17.1596 17.9768C17.3688 17.9768 17.5779 17.8971 17.7374 17.7375C18.0566 17.4183 18.0566 16.901 17.7374 16.5819ZM4.90275 1.63437H9.8055V3.26862H4.90275V1.63437ZM1.63425 11.9846V4.90287H4.08562H10.6226H13.074V6.81756C12.5625 6.63616 12.0124 6.53707 11.4395 6.53707C8.73615 6.53707 6.53678 8.73644 6.53678 11.4398C6.53678 11.6239 6.54729 11.8056 6.56723 11.9846H1.63425ZM8.17103 11.4398C8.17103 9.63756 9.63728 8.17132 11.4395 8.17132C13.2418 8.17132 14.708 9.63756 14.708 11.4398C14.708 13.2421 13.2418 14.7083 11.4395 14.7083C9.63728 14.7083 8.17103 13.2421 8.17103 11.4398Z" fill="white"/>
</g>
<defs>
<clipPath id="clip0_147_6678">
<rect width="17.9767" height="17.9767" fill="white"/>
</clipPath>
</defs>
</svg>
