<svg width="123" height="27" viewBox="0 0 123 27" fill="none" xmlns="http://www.w3.org/2000/svg">
<path d="M27.3898 12.3483C27.5574 11.4053 27.1383 10.4204 26.342 9.89647C25.7343 9.49831 24.9589 9.37258 24.2674 9.60309C24.1836 9.62404 24.0997 9.66596 23.995 9.70787C23.5968 9.89647 23.2406 10.1898 22.8843 10.4413C21.9203 11.0909 20.6001 11.049 19.6362 10.3994C18.7979 9.85456 18.295 8.89059 18.295 7.90567C18.295 7.06745 18.7351 6.41782 19.1123 5.70532C19.238 5.49577 19.3428 5.26525 19.4266 5.03474C19.7619 4.13364 19.7619 3.08586 19.3637 2.18477C19.0704 1.51418 18.5674 0.927419 17.9178 0.550216C15.6965 -0.79095 12.8884 0.44544 12.2598 2.89726C11.2748 6.75311 13.3285 11.049 16.5557 13.1865C18.1274 14.2343 19.9505 14.8211 21.8365 14.8839C22.7167 14.9049 23.6178 14.842 24.4769 14.6325C24.7074 14.5696 24.938 14.5067 25.1685 14.4439C25.4828 14.3391 25.7762 14.2343 26.0486 14.0876C26.7192 13.7314 27.2431 13.1865 27.3898 12.3483ZM25.9229 13.5637C25.2942 13.92 24.4979 14.0667 23.7854 14.0876C22.6747 14.1086 21.5431 13.8152 20.5582 13.1446C19.0285 12.1178 18.1693 10.4832 18.0854 8.78582C18.2321 9.47736 18.5674 10.106 19.1332 10.609C19.259 10.7347 19.4057 10.8395 19.5523 10.9443C20.2858 11.4262 21.1869 11.5939 22.0461 11.4262C22.9262 11.2376 23.4082 10.609 24.1836 10.2318C24.8961 9.87551 25.5457 10.0012 26.0067 10.3784C26.9707 11.0909 27.2431 12.7884 25.9229 13.5637Z" fill="#4FBFA3"/>
<path d="M5.47062 1.99617C4.56952 2.33146 3.91989 3.19064 3.87798 4.13365C3.83607 4.8671 4.12945 5.60055 4.65334 6.08253C4.71621 6.1454 4.80003 6.20827 4.8629 6.25018C5.21915 6.50165 5.65922 6.64834 6.05738 6.8579C7.10516 7.36083 7.71288 8.53435 7.65001 9.68692C7.58714 10.6718 7.02134 11.5939 6.16215 12.0968C5.4287 12.5159 4.63239 12.4531 3.85702 12.474C3.60556 12.474 3.35409 12.495 3.12357 12.5369C2.15961 12.7045 1.25852 13.2284 0.692713 14.0248C0.252643 14.6325 0.00117393 15.345 0.00117393 16.0784C-0.0616932 18.6769 2.41108 20.4791 4.8629 19.8085C8.6978 18.7398 11.3801 14.8001 11.6316 10.9443C11.7573 9.0792 11.3592 7.17223 10.479 5.51673C10.0599 4.74137 9.53603 4.00791 8.94927 3.35829C8.78162 3.19064 8.61397 3.023 8.44633 2.85535C8.21581 2.62484 7.96435 2.43624 7.69193 2.26859C7.00039 1.89139 6.26694 1.70279 5.47062 1.99617ZM7.25185 2.66675C7.88053 3.023 8.40442 3.65167 8.76066 4.25939C9.34742 5.20239 9.64081 6.334 9.55698 7.52848C9.43125 9.35163 8.44633 10.9233 7.02134 11.8454C7.54523 11.3843 7.92244 10.7557 8.06913 10.0432C8.11104 9.87552 8.13199 9.68692 8.15295 9.49832C8.21581 8.61818 7.90148 7.73804 7.31472 7.08841C6.707 6.41783 5.93164 6.31305 5.21915 5.83107C4.56952 5.391 4.33901 4.76233 4.42283 4.17557C4.59048 3.00205 5.91069 1.91235 7.25185 2.66675Z" fill="#4FBFA3"/>
<path d="M7.48223 26.1791C8.21568 26.7868 9.28442 26.9125 10.1436 26.4934C10.7932 26.1791 11.2962 25.5504 11.4429 24.8379C11.4638 24.7541 11.4848 24.6493 11.4848 24.5655C11.5267 24.1254 11.4429 23.6853 11.4009 23.2453C11.3171 22.0718 12.0296 20.9611 13.0564 20.4582C13.9575 20.0181 15.0263 20.039 15.8855 20.542C16.6189 20.9611 16.9542 21.6736 17.3733 22.3442C17.4991 22.5537 17.6458 22.7633 17.7924 22.9519C18.4211 23.7063 19.3222 24.2092 20.2862 24.314C21.0196 24.3978 21.774 24.2511 22.4237 23.8949C24.6869 22.6376 25.0222 19.599 23.22 17.8177C20.391 15.0306 15.613 14.6744 12.1554 16.3718C10.4789 17.21 9.03295 18.4883 8.04803 20.081C7.58701 20.8354 7.20981 21.6526 6.93738 22.4909C6.87452 22.7214 6.81165 22.9519 6.74878 23.1824C6.68591 23.4967 6.62305 23.8111 6.62305 24.1254C6.62305 24.9008 6.81165 25.6133 7.48223 26.1791ZM7.16789 24.2931C7.16789 23.5806 7.46128 22.8052 7.79657 22.1765C8.32046 21.2126 9.15868 20.3743 10.2274 19.8504C11.8829 19.0332 13.727 19.117 15.2358 19.8924C14.5653 19.6618 13.8318 19.6618 13.1403 19.8924C12.9726 19.9343 12.805 20.0181 12.6373 20.1019C11.841 20.5001 11.2543 21.1916 10.9818 22.0298C10.6885 22.889 11.0028 23.6225 10.9609 24.4817C10.919 25.257 10.4789 25.76 9.91309 25.9905C8.78148 26.4305 7.16789 25.8228 7.16789 24.2931Z" fill="#4FBFA3"/>
<path d="M24.541 3.06495V1.91238H25.044C25.1068 1.91238 25.1906 1.93334 25.2326 1.9543C25.2954 1.97525 25.3373 2.01717 25.3583 2.05908C25.3792 2.10099 25.4002 2.16385 25.4002 2.22672V2.24768C25.4002 2.31054 25.3792 2.37341 25.3583 2.41532C25.3164 2.45723 25.2745 2.49914 25.2326 2.5201V2.54106C25.2745 2.54106 25.3164 2.56201 25.3373 2.58297C25.3583 2.60393 25.3792 2.64584 25.3792 2.68775V3.06495H25.1487V2.70871C25.1487 2.68775 25.1487 2.66679 25.1278 2.64583C25.1068 2.62488 25.0859 2.62488 25.0649 2.62488H24.7296V3.06495H24.541ZM24.7296 2.43628H25.002C25.0649 2.43628 25.1068 2.41533 25.1278 2.39437C25.1697 2.37341 25.1697 2.3315 25.1697 2.26863V2.24768C25.1697 2.20577 25.1487 2.16385 25.1278 2.12194C25.0859 2.10099 25.0439 2.08003 25.002 2.08003H24.7296V2.43628Z" fill="#4FBFA3"/>
<path d="M24.8965 3.7355C24.205 3.7355 23.6602 3.1697 23.6602 2.49912C23.6602 1.80758 24.226 1.26273 24.8965 1.26273C25.5881 1.26273 26.1329 1.82854 26.1329 2.49912C26.1329 3.1697 25.5881 3.7355 24.8965 3.7355ZM24.8965 1.5142C24.3726 1.5142 23.9326 1.95427 23.9326 2.47816C23.9326 3.00205 24.3726 3.44213 24.8965 3.44213C25.4204 3.44213 25.8605 3.00205 25.8605 2.47816C25.8605 1.95427 25.4204 1.5142 24.8965 1.5142Z" fill="#4FBFA3"/>
<path d="M31.498 18.0902V8.9535H33.3631V10.0222H33.6565C33.8241 9.70791 34.1175 9.41453 34.4947 9.16306C34.8719 8.91159 35.3958 8.78586 36.0454 8.78586C36.716 8.78586 37.2609 8.93255 37.68 9.20497C38.0991 9.4774 38.4134 9.83364 38.623 10.2737H38.9164C39.1259 9.85459 39.4403 9.49835 39.8384 9.22592C40.2366 8.93254 40.8024 8.80681 41.5568 8.80681C42.1436 8.80681 42.6674 8.93255 43.1285 9.16306C43.5895 9.39357 43.9457 9.77078 44.2182 10.2318C44.4906 10.7138 44.6163 11.3005 44.6163 11.9921V18.0692H42.7094V12.1388C42.7094 11.573 42.5627 11.1539 42.2483 10.8605C41.955 10.5671 41.5149 10.3994 40.97 10.3994C40.3833 10.3994 39.9013 10.588 39.545 10.9653C39.1888 11.3425 39.0002 11.8873 39.0002 12.6208V18.0692H37.0932V12.1388C37.0932 11.573 36.9465 11.1539 36.6322 10.8605C36.3388 10.5671 35.8988 10.3994 35.3539 10.3994C34.7671 10.3994 34.2852 10.588 33.9289 10.9653C33.5727 11.3425 33.3841 11.8873 33.3841 12.6208V18.0692H31.498V18.0902Z" fill="white"/>
<path d="M47.823 21.7994V20.1229H52.9153C53.2505 20.1229 53.4392 19.9343 53.4392 19.5571V16.749H53.1458C53.041 17.0005 52.8733 17.231 52.6428 17.4615C52.4123 17.692 52.1189 17.8806 51.7208 18.0273C51.3436 18.174 50.8616 18.2578 50.2748 18.2578C49.5833 18.2578 48.9756 18.1112 48.4307 17.7968C47.8859 17.4825 47.4668 17.0424 47.1524 16.4766C46.8381 15.9108 46.6914 15.2402 46.6914 14.4649V8.97446H48.5984V14.3182C48.5984 15.1145 48.787 15.7012 49.1851 16.0784C49.5833 16.4556 50.1281 16.6443 50.8406 16.6443C51.616 16.6443 52.2447 16.3928 52.7267 15.8689C53.2086 15.345 53.4392 14.5906 53.4392 13.6057V8.97446H55.3461V19.9762C55.3461 20.542 55.1785 20.9821 54.8641 21.3174C54.5288 21.6527 54.0888 21.8203 53.523 21.8203H47.823V21.7994Z" fill="white"/>
<path d="M61.905 18.3626C61.0249 18.3626 60.2286 18.174 59.5161 17.7968C58.8036 17.4196 58.2378 16.8957 57.8396 16.1832C57.4205 15.4707 57.2109 14.6325 57.2109 13.6476V13.4171C57.2109 12.4321 57.4205 11.5939 57.8396 10.8814C58.2587 10.1899 58.8245 9.64504 59.5161 9.26783C60.2286 8.89063 61.0249 8.70203 61.905 8.70203C62.7852 8.70203 63.5186 8.86968 64.1473 9.18401C64.755 9.49835 65.2579 9.93842 65.6351 10.4623C66.0123 10.9862 66.2638 11.573 66.3686 12.2226L64.5245 12.6207C64.4616 12.2226 64.3359 11.8454 64.1263 11.5101C63.9377 11.1748 63.6443 10.9024 63.2881 10.7138C62.9318 10.5252 62.4708 10.4204 61.926 10.4204C61.4021 10.4204 60.9201 10.5461 60.501 10.7766C60.0819 11.0072 59.7466 11.3634 59.4951 11.8035C59.2436 12.2645 59.1179 12.8094 59.1179 13.438V13.6057C59.1179 14.2553 59.2436 14.8001 59.4951 15.2612C59.7466 15.7222 60.0819 16.0575 60.501 16.288C60.9201 16.5185 61.4021 16.6442 61.926 16.6442C62.7223 16.6442 63.33 16.4347 63.7491 16.0156C64.1682 15.5965 64.4407 15.0726 64.5454 14.4229L66.3895 14.842C66.2429 15.4707 65.9704 16.0575 65.5932 16.5814C65.216 17.1053 64.7131 17.5453 64.1054 17.8597C63.5396 18.195 62.7852 18.3626 61.905 18.3626Z" fill="white"/>
<path d="M72.4455 18.3626C71.5235 18.3626 70.7271 18.174 70.0146 17.7968C69.3021 17.4196 68.7363 16.8748 68.3382 16.1832C67.94 15.4707 67.7305 14.6535 67.7305 13.6895V13.4171C67.7305 12.4531 67.94 11.6149 68.3382 10.9234C68.7363 10.2318 69.3021 9.68697 70.0146 9.30976C70.7271 8.93256 71.5444 8.74396 72.4455 8.74396C73.3676 8.74396 74.1639 8.93256 74.8973 9.30976C75.6098 9.68697 76.1756 10.2318 76.5738 10.9234C76.9719 11.6149 77.1815 12.4531 77.1815 13.4171V13.6895C77.1815 14.6535 76.9719 15.4917 76.5738 16.1832C76.1756 16.8957 75.6098 17.4196 74.8973 17.7968C74.1848 18.174 73.3676 18.3626 72.4455 18.3626ZM72.4455 16.6443C73.2837 16.6443 73.9753 16.3718 74.4992 15.848C75.0231 15.3031 75.2955 14.5696 75.2955 13.6266V13.459C75.2955 12.516 75.044 11.7616 74.5201 11.2377C73.9962 10.6928 73.3256 10.4414 72.4665 10.4414C71.6492 10.4414 70.9576 10.7138 70.4337 11.2377C69.9099 11.7825 69.6374 12.516 69.6374 13.459V13.6266C69.6374 14.5696 69.9099 15.3241 70.4337 15.848C70.9367 16.3928 71.6282 16.6443 72.4455 16.6443Z" fill="white"/>
<path d="M80.891 18.0902L77.8105 8.95352H79.8223L82.2532 16.6862H82.5465L84.9774 8.95352H86.9891L83.9087 18.0902H80.891Z" fill="white"/>
<path d="M92.2699 18.3626C91.3478 18.3626 90.5306 18.174 89.839 17.7759C89.1475 17.3777 88.6026 16.8329 88.2254 16.1204C87.8273 15.4079 87.6387 14.5906 87.6387 13.6476V13.4171C87.6387 12.4741 87.8273 11.6358 88.2045 10.9233C88.5817 10.2109 89.1265 9.66601 89.7971 9.26785C90.4886 8.86969 91.285 8.68109 92.1861 8.68109C93.0662 8.68109 93.8416 8.86969 94.4912 9.26785C95.1618 9.66601 95.6647 10.1899 96.0419 10.8814C96.4191 11.573 96.6077 12.3902 96.6077 13.3123V14.0248H89.5876C89.6085 14.8211 89.8809 15.4707 90.3839 15.9318C90.8868 16.4137 91.5364 16.6443 92.2908 16.6443C93.0033 16.6443 93.5482 16.4766 93.9044 16.1623C94.2607 15.8479 94.5541 15.4707 94.7427 15.0516L96.3143 15.8689C96.1467 16.2251 95.8952 16.5814 95.5599 16.9586C95.2246 17.3358 94.8055 17.6711 94.2816 17.9226C93.7787 18.2369 93.0872 18.3626 92.2699 18.3626ZM89.5876 12.5998H94.6379C94.596 11.9083 94.3445 11.3634 93.9044 10.9862C93.4644 10.5881 92.8776 10.3995 92.1651 10.3995C91.4526 10.3995 90.8659 10.5881 90.4048 10.9862C89.9648 11.3634 89.6923 11.9083 89.5876 12.5998Z" fill="white"/>
<path d="M98.4297 18.0902V8.9535H100.295V10.0222H100.588C100.735 9.64504 100.965 9.35166 101.301 9.18402C101.636 8.99542 102.034 8.91159 102.516 8.91159H103.606V10.63H102.432C101.825 10.63 101.301 10.7976 100.923 11.1329C100.525 11.4682 100.337 11.9921 100.337 12.7046V18.0692H98.4297V18.0902Z" fill="white"/>
<path d="M104.948 18.3626C104.508 18.3626 104.151 18.2159 103.858 17.9435C103.565 17.6501 103.418 17.2939 103.418 16.8538C103.418 16.4137 103.565 16.0575 103.858 15.7641C104.151 15.4917 104.508 15.345 104.948 15.345C105.388 15.345 105.744 15.4917 106.037 15.7641C106.331 16.0575 106.477 16.4137 106.477 16.8329C106.477 17.2729 106.331 17.6501 106.037 17.9226C105.744 18.2159 105.388 18.3626 104.948 18.3626Z" fill="white"/>
<path d="M112.093 18.3626C111.318 18.3626 110.626 18.174 109.976 17.7968C109.327 17.4196 108.824 16.8957 108.447 16.2042C108.069 15.5126 107.881 14.6744 107.881 13.6685V13.3961C107.881 12.4112 108.069 11.573 108.468 10.8605C108.866 10.1689 109.369 9.62408 110.018 9.26783C110.668 8.89063 111.36 8.70203 112.114 8.70203C112.994 8.70203 113.686 8.86968 114.168 9.18401C114.65 9.49835 115.006 9.87555 115.236 10.2737H115.53V8.9535H117.395V15.9317C117.395 16.309 117.562 16.4976 117.919 16.4976H118.694V18.0902H117.08C116.64 18.0902 116.305 17.9645 116.033 17.713C115.76 17.4615 115.634 17.1262 115.634 16.7071V16.5814H115.362C115.132 17.0634 114.754 17.4825 114.272 17.8178C113.728 18.174 113.015 18.3626 112.093 18.3626ZM112.638 16.6862C113.476 16.6862 114.168 16.4137 114.691 15.8898C115.215 15.3659 115.488 14.5906 115.488 13.6057V13.438C115.488 12.4531 115.215 11.7197 114.691 11.1748C114.147 10.6509 113.476 10.3785 112.638 10.3785C111.821 10.3785 111.15 10.6509 110.605 11.1748C110.06 11.6987 109.809 12.4531 109.809 13.438V13.6057C109.809 14.5906 110.081 15.345 110.605 15.8898C111.15 16.4347 111.821 16.6862 112.638 16.6862Z" fill="white"/>
<path d="M120.1 18.0902V8.95352H122.007V18.0902H120.1Z" fill="white"/>
</svg>
