<svg width="40" height="40" viewBox="0 0 40 40" fill="none" xmlns="http://www.w3.org/2000/svg">
<rect x="28" width="12" height="12" rx="6" fill="#FA483C"/>
<path d="M19 35.5C20.375 35.5 21.5 34.375 21.5 33H16.5C16.5 34.375 17.625 35.5 19 35.5ZM26.5 28V21.75C26.5 17.9125 24.4625 14.7 20.875 13.85V13C20.875 11.9625 20.0375 11.125 19 11.125C17.9625 11.125 17.125 11.9625 17.125 13V13.85C13.55 14.7 11.5 17.9 11.5 21.75V28L9 30.5V31.75H29V30.5L26.5 28ZM24 29.25H14V21.75C14 18.65 15.8875 16.125 19 16.125C22.1125 16.125 24 18.65 24 21.75V29.25Z" fill="#757B8C"/>
</svg>
