<svg width="16" height="20" viewBox="0 0 16 20" fill="none" xmlns="http://www.w3.org/2000/svg">
<path d="M8 0.856583L0.5 4.18992V9.18991C0.5 13.8149 3.7 18.1399 8 19.1899C12.3 18.1399 15.5 13.8149 15.5 9.18991V4.18992L8 0.856583ZM13.8333 9.18991C13.8333 10.7316 13.4083 12.2316 12.6833 13.5316L11.475 12.3232C12.55 10.7066 12.3667 8.50658 10.9417 7.08158C9.31667 5.45658 6.675 5.45658 5.05 7.08158C3.425 8.70658 3.425 11.3482 5.05 12.9732C6.475 14.3982 8.675 14.5732 10.2917 13.5066L11.725 14.9399C10.7333 16.1232 9.45 17.0316 8 17.4732C4.65 16.4316 2.16667 12.9566 2.16667 9.18991V5.27325L8 2.68158L13.8333 5.27325V9.18991ZM8 12.5232C6.61667 12.5232 5.5 11.4066 5.5 10.0232C5.5 8.63992 6.61667 7.52325 8 7.52325C9.38333 7.52325 10.5 8.63992 10.5 10.0232C10.5 11.4066 9.38333 12.5232 8 12.5232Z" fill="#EAECF0"/>
</svg>
