<svg width="16" height="14" viewBox="0 0 16 14" fill="none" xmlns="http://www.w3.org/2000/svg">
<path fill-rule="evenodd" clip-rule="evenodd" d="M0.291016 2.02325C0.291016 1.33159 0.849349 0.773254 1.54102 0.773254C2.23268 0.773254 2.79102 1.33159 2.79102 2.02325C2.79102 2.71492 2.23268 3.27325 1.54102 3.27325C0.849349 3.27325 0.291016 2.71492 0.291016 2.02325ZM0.291016 7.02325C0.291016 6.33159 0.849349 5.77325 1.54102 5.77325C2.23268 5.77325 2.79102 6.33159 2.79102 7.02325C2.79102 7.71492 2.23268 8.27325 1.54102 8.27325C0.849349 8.27325 0.291016 7.71492 0.291016 7.02325ZM1.54102 10.7733C0.849349 10.7733 0.291016 11.3399 0.291016 12.0233C0.291016 12.7066 0.857682 13.2733 1.54102 13.2733C2.22435 13.2733 2.79102 12.7066 2.79102 12.0233C2.79102 11.3399 2.23268 10.7733 1.54102 10.7733ZM15.7077 12.8566H4.04102V11.1899H15.7077V12.8566ZM4.04102 7.85659H15.7077V6.18992H4.04102V7.85659ZM4.04102 2.85659V1.18992H15.7077V2.85659H4.04102Z" fill="#EAECF0"/>
</svg>
