<svg width="18" height="18" viewBox="0 0 18 18" fill="none" xmlns="http://www.w3.org/2000/svg">
<path fill-rule="evenodd" clip-rule="evenodd" d="M15.2523 8.95348C15.2523 9.23681 15.2273 9.50348 15.194 9.77015L16.9523 11.1451C17.1106 11.2701 17.1523 11.4951 17.0523 11.6785L15.3856 14.5618C15.3106 14.6951 15.169 14.7701 15.0273 14.7701C14.9773 14.7701 14.9273 14.7618 14.8773 14.7451L12.8023 13.9118C12.369 14.2368 11.9023 14.5201 11.394 14.7285L11.0773 16.9368C11.0523 17.1368 10.8773 17.2868 10.669 17.2868H7.33564C7.12731 17.2868 6.95231 17.1368 6.92731 16.9368L6.61064 14.7285C6.10231 14.5201 5.63564 14.2451 5.20231 13.9118L3.12731 14.7451C3.08564 14.7618 3.03564 14.7701 2.98564 14.7701C2.83564 14.7701 2.69397 14.6951 2.61897 14.5618L0.952308 11.6785C0.852308 11.4951 0.893974 11.2701 1.05231 11.1451L2.81064 9.77015C2.77731 9.50348 2.75231 9.22848 2.75231 8.95348C2.75231 8.67848 2.77731 8.40348 2.81064 8.13682L1.05231 6.76181C0.893974 6.63681 0.843974 6.41181 0.952308 6.22848L2.61897 3.34515C2.69397 3.21181 2.83564 3.13681 2.97731 3.13681C3.02731 3.13681 3.07731 3.14515 3.12731 3.16181L5.20231 3.99515C5.63564 3.67015 6.10231 3.38681 6.61064 3.17848L6.92731 0.970148C6.95231 0.770148 7.12731 0.620148 7.33564 0.620148H10.669C10.8773 0.620148 11.0523 0.770148 11.0773 0.970148L11.394 3.17848C11.9023 3.38681 12.369 3.66181 12.8023 3.99515L14.8773 3.16181C14.919 3.14515 14.969 3.13681 15.019 3.13681C15.169 3.13681 15.3106 3.21181 15.3856 3.34515L17.0523 6.22848C17.1523 6.41181 17.1106 6.63681 16.9523 6.76181L15.194 8.13682C15.2273 8.40348 15.2523 8.67015 15.2523 8.95348ZM13.5857 8.95348C13.5857 8.77848 13.5773 8.60348 13.544 8.34515L13.4273 7.40348L14.169 6.82015L15.0607 6.11181L14.4773 5.10348L13.419 5.52848L12.5357 5.88681L11.7773 5.30348C11.444 5.05348 11.1107 4.86181 10.7523 4.71181L9.86899 4.35348L9.73566 3.41181L9.57733 2.28681H8.41899L8.25233 3.41181L8.11899 4.35348L7.23566 4.71181C6.89399 4.85348 6.55233 5.05348 6.19399 5.32015L5.44399 5.88681L4.57733 5.53681L3.51899 5.11181L2.93566 6.12015L3.83566 6.82015L4.57733 7.40348L4.46066 8.34515C4.43566 8.59515 4.41899 8.78681 4.41899 8.95348C4.41899 9.12015 4.43566 9.31181 4.46066 9.57015L4.57733 10.5118L3.83566 11.0951L2.93566 11.7951L3.51899 12.8035L4.57733 12.3785L5.46066 12.0201L6.21899 12.6035C6.55233 12.8535 6.88566 13.0451 7.24399 13.1951L8.12733 13.5535L8.26066 14.4951L8.41899 15.6201H9.58566L9.75233 14.4951L9.88566 13.5535L10.769 13.1951C11.1107 13.0535 11.4523 12.8535 11.8107 12.5868L12.5607 12.0201L13.4273 12.3701L14.4857 12.7951L15.069 11.7868L14.169 11.0868L13.4273 10.5035L13.544 9.56181C13.569 9.31181 13.5857 9.12848 13.5857 8.95348ZM9.00228 5.62015C7.16061 5.62015 5.66895 7.11181 5.66895 8.95348C5.66895 10.7951 7.16061 12.2868 9.00228 12.2868C10.8439 12.2868 12.3356 10.7951 12.3356 8.95348C12.3356 7.11181 10.8439 5.62015 9.00228 5.62015ZM7.33561 8.95348C7.33561 9.87015 8.08561 10.6201 9.00228 10.6201C9.91895 10.6201 10.6689 9.87015 10.6689 8.95348C10.6689 8.03681 9.91895 7.28681 9.00228 7.28681C8.08561 7.28681 7.33561 8.03681 7.33561 8.95348Z" fill="#FAFBFC"/>
</svg>
