<svg width="250" height="201" viewBox="0 0 250 201" fill="none" xmlns="http://www.w3.org/2000/svg">
<path opacity="0.2" d="M134.027 274.306C134.042 273.938 134.058 273.541 134.074 273.114C134.183 270.261 134.327 266.1 134.464 260.859C134.739 250.378 134.989 235.577 134.891 218.285C134.785 199.485 134.267 177.719 132.919 155.35C158.089 156.889 182.951 156.929 203.812 156.417C219.833 156.024 233.515 155.304 243.196 154.682C248.036 154.372 251.877 154.085 254.509 153.877C255.281 153.815 255.95 153.761 256.509 153.714L275.286 219.566L179.2 265.051L134.027 274.306ZM122.578 99.889C124.847 116.13 126.452 133.165 127.57 149.989C116.096 149.183 104.627 148.049 93.5178 146.498C74.9548 143.907 57.4701 140.16 42.6769 134.863C27.8513 129.555 15.9384 122.764 8.29787 114.214C0.750466 105.768 -2.72173 95.5153 -0.586313 82.8348C1.57384 70.0074 9.50831 54.5162 25.2636 35.9112C41.0544 17.2641 54.2822 7.42543 65.244 4.02146C70.674 2.33526 75.525 2.23394 79.8995 3.39312C84.285 4.55524 88.3497 7.02664 92.1269 10.725C99.7392 18.1786 105.99 30.4269 111.035 46.0042C116.062 61.5248 119.81 80.0813 122.578 99.889Z" stroke="#667085" stroke-width="5"/>
</svg>
