<svg width="36" height="36" viewBox="0 0 36 36" fill="none" xmlns="http://www.w3.org/2000/svg">
<circle cx="18" cy="18" r="18" fill="#0698A0" fill-opacity="0.1"/>
<path fill-rule="evenodd" clip-rule="evenodd" d="M12.55 11H18.5C19.911 11 21.05 12.139 21.05 13.55V14.4H19.35V12.7H11.7V18.65H15.95V22.9H14.25L12.55 24.6H11.7V23.75L12.55 22.9C11.139 22.9 10 21.761 10 20.35V13.55C10 12.139 11.139 11 12.55 11ZM13.4 20.35C13.4 19.8825 13.0175 19.5 12.55 19.5C12.0825 19.5 11.7 19.8825 11.7 20.35C11.7 20.8175 12.0825 21.2 12.55 21.2C13.0175 21.2 13.4 20.8175 13.4 20.35ZM25.7843 15.811C25.6653 15.471 25.3423 15.25 24.9598 15.25H18.8483C18.4573 15.25 18.1428 15.471 18.0153 15.811L16.8083 19.3045V23.988C16.8083 24.311 17.0718 24.6 17.3948 24.6H17.9218C18.2448 24.6 18.4998 24.277 18.4998 23.954V22.9H25.2998V23.954C25.2998 24.277 25.5633 24.6 25.8863 24.6H26.4048C26.7278 24.6 26.9913 24.311 26.9913 23.988L26.9998 22.8235V19.3045L25.7843 15.811ZM24.9607 16.1H18.8492L17.9737 18.65H25.8362L24.9607 16.1ZM18.5 21.2C18.0325 21.2 17.65 20.8175 17.65 20.35C17.65 19.8825 18.0325 19.5 18.5 19.5C18.9675 19.5 19.35 19.8825 19.35 20.35C19.35 20.8175 18.9675 21.2 18.5 21.2ZM24.45 20.35C24.45 20.8175 24.8325 21.2 25.3 21.2C25.7675 21.2 26.15 20.8175 26.15 20.35C26.15 19.8825 25.7675 19.5 25.3 19.5C24.8325 19.5 24.45 19.8825 24.45 20.35Z" fill="#3BAA90"/>
</svg>
