<svg width="19" height="19" viewBox="0 0 19 19" fill="none" xmlns="http://www.w3.org/2000/svg">
<path opacity="0.1" d="M10.2917 7.52083C10.2917 9.05113 9.05113 10.2917 7.52083 10.2917C5.99054 10.2917 4.75 9.05113 4.75 7.52083C4.75 5.99054 5.99054 4.75 7.52083 4.75C9.05113 4.75 10.2917 5.99054 10.2917 7.52083Z" fill="#EAECF0"/>
<path d="M12.375 5.6645C12.5892 5.58506 12.821 5.54166 13.063 5.54166C14.156 5.54166 15.0421 6.42776 15.0421 7.52082C15.0421 8.61388 14.156 9.49999 13.063 9.49999C12.821 9.49999 12.5892 9.45661 12.375 9.37712" stroke="#EAECF0" stroke-width="1.58333" stroke-linecap="round"/>
<path d="M2.375 15.0417C2.92233 13.2151 4.3304 12.6667 7.52083 12.6667C10.7112 12.6667 12.1193 13.2151 12.6667 15.0417" stroke="#EAECF0" stroke-width="1.58333" stroke-linecap="round"/>
<path d="M13.459 11.875C15.3614 11.9502 16.2529 12.3803 16.6257 13.4583" stroke="#EAECF0" stroke-width="1.58333" stroke-linecap="round"/>
<path d="M10.2917 7.52083C10.2917 9.05113 9.05113 10.2917 7.52083 10.2917C5.99054 10.2917 4.75 9.05113 4.75 7.52083C4.75 5.99054 5.99054 4.75 7.52083 4.75C9.05113 4.75 10.2917 5.99054 10.2917 7.52083Z" stroke="#EAECF0" stroke-width="1.58333"/>
</svg>
